<svg width="34" height="34" viewBox="0 0 34 34" fill="none" xmlns="http://www.w3.org/2000/svg">
<g clip-path="url(#clip0_211_2056)">
<path d="M31.7852 9.70105C31.7852 9.72458 31.7852 9.754 31.779 9.77166C31.7484 10.0011 31.7484 10.2306 31.7667 10.466C31.779 10.5248 31.7913 10.5837 31.8403 10.6308C31.92 10.719 32.0426 10.7014 32.0917 10.5954C32.1162 10.5425 32.1162 10.4895 32.1039 10.4366C32.0426 10.213 32.0304 9.9776 32.0243 9.74812C32.0243 9.73635 32.0243 9.7187 32.0243 9.70105C32.0917 9.69516 32.153 9.68928 32.2082 9.68928C32.2511 9.68339 32.2879 9.67751 32.3186 9.65985C32.4105 9.61278 32.4105 9.51275 32.3124 9.46568C32.2756 9.44802 32.2266 9.44214 32.1837 9.44214C32.0304 9.44802 31.8771 9.44802 31.7238 9.44802C31.6687 9.44802 31.6135 9.45391 31.5583 9.45979C31.5276 9.46568 31.4909 9.46568 31.4664 9.48333C31.4234 9.50098 31.3989 9.5304 31.3989 9.57159C31.405 9.61278 31.4234 9.63632 31.4664 9.65397C31.4909 9.67163 31.5215 9.67751 31.5522 9.67751C31.6257 9.68339 31.7055 9.69516 31.7852 9.70105ZM33.4711 9.97172C33.4711 9.9776 33.4772 9.98349 33.4772 9.98349C33.5018 10.1424 33.5263 10.2954 33.5447 10.4483C33.5508 10.5013 33.557 10.5484 33.5937 10.5896C33.6734 10.6896 33.7961 10.6778 33.8512 10.5719C33.8758 10.5189 33.8819 10.466 33.8696 10.4071C33.8328 10.2306 33.8144 10.0541 33.7777 9.88346C33.7531 9.77754 33.7225 9.67751 33.6918 9.58336C33.6734 9.52452 33.6305 9.48333 33.557 9.47745C33.4834 9.46568 33.4282 9.50098 33.3975 9.55394C33.3608 9.60101 33.3301 9.64809 33.3056 9.70105C33.2627 9.79519 33.2259 9.88934 33.1769 9.9776C33.1707 10.0011 33.1646 10.0188 33.1523 10.0364C33.1462 10.0247 33.1401 10.0188 33.1401 10.0188C33.0603 9.87169 32.9868 9.72458 32.9071 9.58336C32.8948 9.57159 32.8887 9.55982 32.8826 9.54806C32.8458 9.4951 32.8029 9.46568 32.7354 9.46568C32.6741 9.47156 32.625 9.50687 32.5944 9.55982C32.5821 9.58336 32.5821 9.60101 32.576 9.62455C32.5515 9.81285 32.5208 10.0011 32.4963 10.1894C32.484 10.2954 32.4779 10.4013 32.4779 10.5072C32.4718 10.5307 32.4779 10.5601 32.4902 10.5837C32.5025 10.6307 32.5392 10.6602 32.5883 10.6661C32.6496 10.6719 32.6925 10.6543 32.7109 10.6072C32.7293 10.5719 32.7354 10.5425 32.7416 10.5131C32.7661 10.4071 32.7845 10.3071 32.8029 10.2071C32.8151 10.1482 32.8212 10.1012 32.8397 10.0364C32.8519 10.06 32.8641 10.0776 32.8764 10.0953C32.9316 10.1659 32.9868 10.2365 33.0542 10.2954C33.1217 10.3424 33.1769 10.3365 33.232 10.2836C33.2443 10.2718 33.2504 10.2659 33.2627 10.2542C33.3179 10.1718 33.3853 10.0894 33.4405 10.007C33.4527 9.99525 33.4589 9.98349 33.4711 9.97172Z" fill="#3A3B7B"/>
<path d="M19.3449 9.81665C19.3023 9.92848 19.2941 10.009 19.3138 10.076C19.3355 10.1671 19.392 10.1969 19.4685 10.1737C20.1886 10.0028 21.7677 10.4879 22.3523 10.6231C22.4902 10.6515 22.6024 10.4807 22.5083 10.3275C22.371 10.1792 20.7926 9.54418 20.1903 9.50956C19.9543 9.49676 19.5323 9.43866 19.3449 9.81665Z" fill="#3A3B7B"/>
<path d="M25.5161 7.76102C25.5929 7.80353 25.6358 7.84409 25.657 7.8894C25.6885 7.94884 25.6719 7.98996 25.6189 8.01095C25.1429 8.23392 24.5094 9.19386 24.2538 9.52494C24.1918 9.6011 24.0488 9.55684 24.0272 9.43159C24.0317 9.28998 24.5931 8.24823 24.9065 7.96449C25.0297 7.85371 25.2331 7.63635 25.5161 7.76102Z" fill="#3A3B7B"/>
<path d="M21.7254 7.28851C21.8176 7.22181 21.9134 7.19844 21.9623 7.24179C22.6805 7.83129 23.0614 8.76481 23.2972 9.61943C23.3061 9.63934 23.3067 9.66792 23.2996 9.69772C23.2966 9.7232 23.2772 9.75011 23.2464 9.77093C23.2135 9.79392 23.1852 9.80092 23.1719 9.78111C22.8571 9.3702 21.0593 7.77143 21.7254 7.28851Z" fill="#3A3B7B"/>
<path d="M6.51689 17.5089C6.68901 17.386 6.87615 17.2836 7.07417 17.2041C7.28135 17.1473 7.50218 17.1567 7.70328 17.231C7.90434 17.3053 8.07479 17.4404 8.18873 17.6159C8.29066 17.791 8.33053 17.9931 8.30239 18.1919C8.27426 18.3906 8.17962 18.5751 8.03268 18.7178C7.91878 18.8334 7.78946 18.9341 7.64818 19.0173C7.01846 19.4078 6.38313 19.7768 5.74783 20.1673C5.61783 20.265 5.47993 20.3527 5.33543 20.4294C5.11565 20.5346 4.86447 20.5627 4.62533 20.509C4.38619 20.4553 4.17413 20.3231 4.02581 20.1352C3.91494 20.0021 3.82137 19.8567 3.74717 19.7019C3.1453 18.4878 2.52115 17.279 1.94157 16.0434C1.67407 15.5086 1.45673 14.8934 1.24496 14.2997C1.15334 14.1272 1.13545 13.9273 1.19509 13.7423C1.25474 13.5573 1.38722 13.402 1.56436 13.3093C1.74149 13.2166 1.9493 13.194 2.14359 13.2461C2.33788 13.2982 2.50332 13.421 2.60473 13.5884C2.91644 13.9859 3.19236 14.4082 3.42952 14.8507C4.03138 15.9204 4.60539 16.9901 5.18497 18.0278C5.21872 18.0851 5.25593 18.1404 5.29642 18.1936C5.73265 18.0175 6.14295 17.7874 6.51689 17.5089Z" fill="#3A3B7B"/>
<path d="M12.7398 17.1358C11.3634 18.6816 9.05619 18.2911 7.89704 16.3014C7.07224 14.8893 6.92736 12.5573 8.72184 11.0864C9.10503 10.7785 9.56323 10.5687 10.0537 10.4767C10.6551 10.3939 11.2684 10.4957 11.8059 10.7676C12.3433 11.0395 12.7775 11.4674 13.0464 11.9903C14.0272 13.7019 13.8879 15.8842 12.7398 17.1358ZM12.1826 13.5308C12.0363 13.1102 11.743 12.7511 11.3522 12.5145C11.1311 12.3632 10.8624 12.2897 10.5914 12.3063C10.3204 12.3228 10.0636 12.4285 9.86426 12.6054C9.06736 13.2847 8.90014 14.8947 9.47971 15.8521C9.5536 16.0082 9.66208 16.147 9.79766 16.2586C9.93324 16.3703 10.0926 16.4522 10.2646 16.4985C10.4366 16.5449 10.617 16.5546 10.7934 16.5271C10.9697 16.4994 11.1376 16.4352 11.2854 16.3388C11.7173 16.0174 12.0343 15.5747 12.192 15.0725C12.3499 14.5702 12.3407 14.0332 12.1659 13.5361L12.1826 13.5308Z" fill="#3A3B7B"/>
<path d="M18.3572 14.2047C18.2163 14.2338 18.0707 14.2355 17.9291 14.2098C17.7875 14.1841 17.6526 14.1314 17.5325 14.055C17.4274 13.9972 17.3369 13.9179 17.2675 13.8226C17.1982 13.7273 17.1518 13.6185 17.1315 13.5039C17.1113 13.3894 17.1177 13.2719 17.1504 13.16C17.1831 13.0481 17.2413 12.9446 17.3207 12.8568C17.4591 12.6805 17.6554 12.5542 17.878 12.4985C18.4591 12.3366 19.0573 12.2379 19.6613 12.2043C19.794 12.1895 19.9285 12.2003 20.0568 12.236C20.1851 12.2718 20.3047 12.3318 20.4085 12.4125C20.5123 12.4932 20.5983 12.593 20.6614 12.7061C20.7245 12.8191 20.7634 12.9431 20.7759 13.0708C20.95 13.6979 20.9691 14.3555 20.8316 14.991C20.3301 17.0449 18.6025 17.7509 16.6631 17.093C16.1187 16.9171 15.6414 16.5894 15.2922 16.1516C14.8264 15.6245 14.4962 14.9998 14.3281 14.3277C14.1919 13.7293 14.2068 13.1083 14.3716 12.5165C14.5364 11.9247 14.8463 11.3794 15.2755 10.926C15.6827 10.4332 16.2113 10.0453 16.8136 9.79738C17.1942 9.59605 17.6395 9.53881 18.0619 9.63692C18.1577 9.66238 18.2447 9.71197 18.3138 9.78056C18.3829 9.84916 18.4317 9.93424 18.455 10.027C18.4783 10.1198 18.4753 10.2168 18.4464 10.3081C18.4174 10.3994 18.3636 10.4816 18.2904 10.5462C18.1512 10.6671 18 10.7746 17.839 10.8671C17.3435 11.1699 16.9124 11.5602 16.5684 12.0171C16.3429 12.3128 16.1876 12.6523 16.1134 13.0117C16.0393 13.3712 16.0481 13.7419 16.1393 14.0978C16.2657 14.583 16.5461 15.0185 16.9417 15.344C18.1678 16.4137 19.7616 15.3814 19.483 13.9212C19.0762 14.0175 18.7195 14.1191 18.3572 14.2047Z" fill="#3A3B7B"/>
<path d="M25.8473 17.2213C24.0361 18.2911 21.9742 17.2213 21.5227 14.9749C21.194 13.3703 21.8181 11.1238 24.0027 10.268C24.4675 10.0899 24.9716 10.0273 25.4683 10.0862C26.0651 10.191 26.6126 10.473 27.0335 10.8924C27.4544 11.3117 27.7276 11.8473 27.8145 12.4236C28.1823 14.333 27.3464 16.3709 25.8473 17.2213ZM26.4771 13.6217C26.4765 13.1773 26.3127 12.7474 26.0145 12.4075C25.8551 12.1973 25.6246 12.0467 25.3624 11.9813C25.1002 11.916 24.8225 11.9399 24.5767 12.0492C23.5959 12.4556 22.9048 13.9319 23.1556 15.0177C23.1748 15.1881 23.2324 15.3524 23.3247 15.4992C23.4169 15.6459 23.5414 15.7716 23.6895 15.8674C23.8375 15.9631 24.0056 16.0267 24.182 16.0537C24.3584 16.0805 24.5387 16.0702 24.7104 16.0232C25.2289 15.8494 25.6778 15.5246 25.9945 15.094C26.3112 14.6634 26.4799 14.1487 26.4771 13.6217Z" fill="#3A3B7B"/>
<path d="M29.646 17.6707C29.6187 17.8664 29.5115 18.0437 29.3479 18.1636C29.1843 18.2835 28.9779 18.3361 28.7739 18.3098C28.5699 18.2836 28.3852 18.1806 28.2603 18.0237C28.1354 17.8667 28.0806 17.6685 28.108 17.4728C28.1353 17.277 28.2426 17.0997 28.4061 16.9798C28.5697 16.8599 28.7761 16.8074 28.9801 16.8336C29.1841 16.8598 29.3688 16.9627 29.4937 17.1197C29.6186 17.2767 29.6734 17.4749 29.646 17.6707ZM29.1612 10.4553C29.2672 10.2999 29.4227 10.1816 29.6045 10.118C29.7863 10.0543 29.9846 10.0488 30.1699 10.1022C30.3583 10.1475 30.5247 10.2535 30.6414 10.4024C30.7581 10.5514 30.8179 10.7344 30.8108 10.9206C30.7862 11.2193 30.7397 11.516 30.6715 11.8085C30.4876 12.798 30.3092 13.7875 30.1142 14.7663C30.025 15.1568 29.908 15.5312 29.7798 15.927C29.7352 16.0507 29.6607 16.1625 29.5625 16.2532C29.5014 16.3215 29.4234 16.3739 29.3356 16.4055C29.2479 16.4371 29.1532 16.447 29.0604 16.4342C28.9677 16.4214 28.8797 16.3863 28.8048 16.3323C28.7299 16.2782 28.6704 16.2069 28.6318 16.1249C28.5656 15.9778 28.5296 15.8198 28.5259 15.6595C28.5259 14.9963 28.5259 14.3277 28.5705 13.6591C28.6463 12.705 28.7953 11.7574 29.0163 10.8243C29.0424 10.6993 29.0914 10.5798 29.1612 10.4713V10.4553Z" fill="#3A3B7B"/>
<path fill-rule="evenodd" clip-rule="evenodd" d="M4.16231 21.9688C4.09651 22.1098 4.07847 22.267 4.11062 22.4182C4.13201 22.6176 4.179 22.8137 4.2505 23.0021C4.33978 23.2328 4.43968 23.4609 4.56285 23.742C4.59118 23.8067 4.62078 23.8742 4.65176 23.9453C4.81787 24.3262 5.02629 24.8129 5.3043 25.5174C5.38299 25.7175 5.45287 25.9192 5.52323 26.1224C5.55166 26.2045 5.58019 26.2868 5.60939 26.3694C5.71406 26.6628 5.89416 26.9264 6.13289 27.1353C6.23426 27.2501 6.36872 27.3338 6.51949 27.3757C6.6732 27.4183 6.83669 27.4156 6.98877 27.3679C7.14084 27.3202 7.27442 27.2296 7.37214 27.108C7.46795 26.9887 7.52492 26.8451 7.536 26.6949C7.59816 26.4025 7.57694 26.0993 7.47449 25.8174C7.3119 25.3493 7.12668 24.8805 6.9131 24.422L6.91212 24.42C6.56076 23.7027 6.2036 22.9903 5.82954 22.2776L5.82674 22.2726C5.71724 22.087 5.57493 21.921 5.40622 21.7822C5.29668 21.6583 5.1456 21.5747 4.97875 21.5459C4.80835 21.5164 4.6326 21.5461 4.48289 21.6295C4.34126 21.7072 4.22899 21.8259 4.16231 21.9688Z" fill="#3A3B7B"/>
<path fill-rule="evenodd" clip-rule="evenodd" d="M9.52889 20.2024C8.97797 20.0655 8.4026 20.0455 7.84289 20.144C7.40936 20.1849 6.98299 20.2809 6.68692 20.471C6.53633 20.5678 6.41459 20.692 6.34686 20.8499C6.27877 21.0087 6.27008 21.1903 6.32588 21.3926C6.42776 21.7632 6.56007 22.1235 6.69192 22.4827L6.71328 22.5409L6.71379 22.5421C7.11077 23.5856 7.51153 24.6255 7.91594 25.6618C7.96309 25.8251 8.02978 25.9827 8.11466 26.1313L8.11625 26.134C8.22837 26.3186 8.37217 26.4837 8.54159 26.6224C8.62632 26.6987 8.73111 26.7514 8.84472 26.775C8.95946 26.7988 9.07878 26.7919 9.18968 26.755C9.30063 26.7182 9.39887 26.6528 9.47374 26.566C9.5474 26.4806 9.59563 26.3778 9.61334 26.2683C9.68644 25.9709 9.66302 25.6592 9.54618 25.3749C9.50973 25.2793 9.48113 25.1815 9.45098 25.0786C9.44093 25.0443 9.43075 25.0094 9.42 24.9738C10.3457 24.6265 11.3307 24.1596 11.677 23.0732C11.8127 22.6978 11.824 22.2912 11.7094 21.9094C11.5947 21.5271 11.3594 21.1882 11.0359 20.9395C10.5956 20.5913 10.0812 20.3397 9.52889 20.2024ZM8.00179 21.5349C8.02002 21.5299 8.03838 21.5252 8.0568 21.5208C8.65946 21.4299 9.27605 21.5511 9.79304 21.8619C10.0209 22.014 10.1142 22.183 10.1302 22.3456C10.1468 22.513 10.0834 22.6944 9.95597 22.8687C9.71523 23.1981 9.27591 23.4618 8.87907 23.5109C8.58978 22.8715 8.29599 22.2062 8.00179 21.5349Z" fill="#3A3B7B"/>
<path d="M13.2018 19.0319C13.8579 18.7411 14.6706 18.6909 15.3065 18.8953C15.4667 18.9401 15.6057 19.037 15.6996 19.1693C15.793 19.3009 15.8361 19.4594 15.8217 19.6178C15.8208 19.7207 15.7945 19.8219 15.745 19.9132C15.6946 20.0061 15.6216 20.086 15.5323 20.1462C15.4429 20.2064 15.3398 20.2451 15.2316 20.2589C15.1233 20.2727 15.0133 20.2613 14.9106 20.2257L14.9028 20.223L14.8955 20.2193C14.8429 20.1929 14.7871 20.173 14.7294 20.1601L14.7258 20.1593C14.2784 20.0453 13.8564 20.2342 13.7023 20.4664C13.6288 20.5771 13.6196 20.6889 13.6809 20.7905C13.7464 20.8994 13.9073 21.0216 14.2327 21.1086C14.3222 21.1322 14.4139 21.155 14.507 21.1781C14.7643 21.2421 15.0317 21.3085 15.2903 21.4006L15.2913 21.4009C16.4843 21.8366 16.9285 22.7389 16.7764 23.5875C16.626 24.4267 15.8957 25.1905 14.7976 25.3706C14.398 25.4557 13.9821 25.4391 13.5912 25.3226C13.1993 25.2058 12.846 24.9926 12.5665 24.7041L12.5592 24.6966C12.4709 24.5879 12.4116 24.4602 12.3853 24.3247C12.361 24.2025 12.3738 24.0761 12.4219 23.9606C12.4698 23.8457 12.5507 23.7463 12.6552 23.6738C12.7655 23.5917 12.8986 23.5424 13.0378 23.5322C13.1765 23.5219 13.3154 23.5509 13.4372 23.6154C13.5589 23.6718 13.6721 23.7438 13.7737 23.8294L13.7757 23.831C13.9554 23.9887 14.1729 24.0298 14.3814 23.9918C14.593 23.9531 14.7919 23.833 14.9199 23.6736C15.047 23.5151 15.0981 23.327 15.0375 23.1443C14.9765 22.9603 14.7933 22.7541 14.3907 22.5817C14.2854 22.5388 14.1763 22.5042 14.0628 22.4706C14.0321 22.4615 14.001 22.4524 13.9695 22.4433C13.8856 22.4188 13.7992 22.3936 13.7145 22.3659C13.6562 22.3468 13.5983 22.3287 13.541 22.3108C13.3844 22.2618 13.2317 22.2141 13.0848 22.1501C12.765 22.0456 12.4887 21.8449 12.297 21.5778C12.1046 21.3096 12.0077 20.9889 12.0209 20.6635C12.0219 19.8706 12.5422 19.3243 13.2018 19.0319Z" fill="#3A3B7B"/>
<path d="M21.5196 18.9475C21.3923 18.8878 21.2517 18.8595 21.1102 18.8651C20.9688 18.8707 20.831 18.9099 20.7093 18.9794C20.5884 19.0484 20.4872 19.1451 20.4147 19.2607C20.3482 19.3581 20.3021 19.467 20.2792 19.5814C20.2562 19.6957 20.2568 19.8131 20.2808 19.9271C20.3045 20.0737 20.3307 20.2162 20.3567 20.3567C20.3996 20.5892 20.4414 20.8165 20.469 21.0483L20.47 21.0542C20.5328 21.4177 20.5656 21.7853 20.5686 22.1537L20.5689 22.1589C20.5903 22.5568 20.4491 22.9469 20.1754 23.2464L20.1711 23.2518C20.082 23.3613 19.963 23.4449 19.8272 23.4932C19.6915 23.5415 19.5445 23.5526 19.4026 23.5252C19.2606 23.4979 19.1294 23.4332 19.0236 23.3384C18.9178 23.2435 18.8415 23.122 18.8034 22.988C18.7221 22.7055 18.675 22.415 18.663 22.1222L18.8019 19.9997C18.804 19.972 18.8063 19.9436 18.8087 19.9149C18.814 19.8504 18.8194 19.7848 18.8217 19.7235C18.8249 19.6334 18.8221 19.5407 18.8003 19.453C18.7779 19.3634 18.7353 19.2781 18.6598 19.2055C18.585 19.1336 18.484 19.0805 18.357 19.0444C18.1273 18.9806 17.9331 18.9826 17.7712 19.0486C17.6093 19.1145 17.4983 19.2369 17.4198 19.3783C17.3419 19.5185 17.2919 19.6845 17.254 19.8507C17.2259 19.9741 17.2033 20.1036 17.1819 20.2269C17.1745 20.2694 17.1672 20.3111 17.1599 20.3516L17.1597 20.3528C17.0449 21.0288 17.0107 21.7152 17.0578 22.3987C17.0666 22.7681 17.1469 23.1327 17.2946 23.4739C17.4612 23.9141 17.763 24.2955 18.1601 24.5678C18.558 24.8406 19.0329 24.991 19.5219 24.9989C20.0108 25.0068 20.4908 24.872 20.8981 24.6123C21.3048 24.353 21.62 23.9813 21.802 23.5464C22.0566 22.9924 22.1761 22.39 22.1514 21.7849C22.1365 21.3432 22.1114 20.8981 22.0865 20.4553C22.0743 20.238 22.0621 20.0213 22.0511 19.8058C22.0456 19.5898 21.9714 19.3805 21.8384 19.2062C21.7561 19.0959 21.6465 19.007 21.5196 18.9475Z" fill="#3A3B7B"/>
<path d="M26.0222 22.2755C26.0093 22.2912 25.9957 22.3075 25.9815 22.3244C25.8781 21.7515 25.7822 21.1788 25.6861 20.6052C25.6517 20.3994 25.617 20.1927 25.5822 19.9866L25.5783 19.9636L25.5656 19.9438C25.5416 19.9064 25.5392 19.8697 25.5392 19.7915V19.7825L25.5378 19.7736C25.5118 19.6121 25.4357 19.4619 25.3195 19.3425C25.2036 19.2234 25.053 19.1406 24.8874 19.1046C24.7221 19.0655 24.5484 19.0741 24.3882 19.1294C24.2283 19.1846 24.089 19.2838 23.9876 19.4146C23.9033 19.5149 23.8342 19.6262 23.7824 19.7451C23.6648 20.0013 23.5463 20.2581 23.4274 20.5156L23.4253 20.5201C23.1285 21.163 22.8297 21.8102 22.5395 22.4624L22.5386 22.4645C22.3605 22.8875 22.2135 23.3331 22.067 23.7774C22.0377 23.8661 22.0085 23.9547 21.979 24.0431C21.9261 24.1833 21.9029 24.3323 21.9109 24.4811C21.9012 24.6144 21.9345 24.7474 22.0062 24.862C22.0793 24.979 22.1888 25.071 22.3192 25.1252C22.4574 25.1834 22.612 25.1957 22.7584 25.1603C22.9045 25.1249 23.0343 25.044 23.1272 24.9302C23.2459 24.7901 23.3481 24.6372 23.4313 24.4753C23.6771 23.9927 23.912 23.5043 24.1458 23.018C24.2363 22.8299 24.3242 22.6615 24.4242 22.478C24.4311 22.5006 24.4381 22.5227 24.4454 22.5448C24.5502 22.9877 24.7271 23.412 24.9697 23.8021C25.0155 23.8847 25.0795 23.9569 25.1571 24.0137C25.2356 24.0713 25.3262 24.1116 25.4226 24.1321C25.519 24.1526 25.619 24.1527 25.7154 24.1324C25.8117 24.1121 25.9026 24.0717 25.9812 24.0145L26.1367 23.9028L27.3436 22.9271L27.2722 23.3636C27.1742 23.9636 27.077 24.5587 26.9737 25.1538C26.9062 25.4176 26.9063 25.6932 26.974 25.9569C27.0034 26.1053 27.0782 26.2419 27.1888 26.3493C27.3004 26.4577 27.4433 26.5312 27.5991 26.5606C27.7548 26.5899 27.9161 26.5737 28.0621 26.5139C28.2059 26.455 28.3283 26.3566 28.4138 26.2311C28.6128 25.9942 28.7367 25.7073 28.7707 25.4046C28.8219 24.9772 28.8798 24.544 28.9377 24.1109C29.0044 23.6118 29.0711 23.1127 29.1274 22.6232L29.1276 22.6217C29.1818 22.0859 29.208 21.5479 29.2062 21.0096C29.2181 20.8395 29.1739 20.67 29.0799 20.5252C28.9855 20.3798 28.8458 20.2668 28.6806 20.2022C28.5088 20.1272 28.3165 20.1072 28.132 20.1451C27.9486 20.1827 27.7827 20.2755 27.6581 20.4098C27.4355 20.6074 27.2267 20.8189 27.033 21.0428L27.0317 21.0443C26.8202 21.2972 26.6102 21.5551 26.4015 21.8113C26.2746 21.9671 26.1481 22.1225 26.0222 22.2755Z" fill="#3A3B7B"/>
</g>
<defs>
<clipPath id="clip0_211_2056">
<rect width="32.7153" height="20.186" fill="white" transform="translate(1.16046 7.21979)"/>
</clipPath>
</defs>
</svg>
