<svg width="34" height="34" viewBox="0 0 34 34" fill="none" xmlns="http://www.w3.org/2000/svg">
<g clip-path="url(#clip0_211_2072)">
<path d="M30.0806 8.50314C30.0806 8.8275 30.3468 9.09045 30.6752 9.09045H31.2697C31.5981 9.09045 31.8643 8.8275 31.8643 8.50314C31.8643 8.17878 31.5981 7.91583 31.2697 7.91583H30.6752C30.3468 7.91583 30.0806 8.17878 30.0806 8.50314Z" fill="#212326"/>
<path d="M12.8384 26.7097H15.7267L14.8858 25.8791C14.6628 25.6588 14.3604 25.5351 14.045 25.5351H12.8384C8.24126 25.5351 4.51456 21.8538 4.51456 17.3128C4.51456 12.7717 8.24126 9.09045 12.8384 9.09045H22.3513C26.9485 9.09045 30.6752 12.7717 30.6752 17.3128C30.6752 21.8538 26.9485 25.5351 22.3513 25.5351H18.7927C18.3197 25.5351 17.866 25.3495 17.5315 25.0191L16.5464 24.046C15.9889 23.4953 15.2327 23.1859 14.4443 23.1859H12.8384C9.55471 23.1859 6.8928 20.5564 6.8928 17.3128C6.8928 14.0691 9.55471 11.4397 12.8384 11.4397H22.3513C25.635 11.4397 28.2969 14.0691 28.2969 17.3128C28.2969 20.5564 25.635 23.1859 22.3513 23.1859H20.0664C19.5933 23.1859 19.1396 23.0002 18.8051 22.6698L17.82 21.6967C17.2625 21.146 16.5063 20.8366 15.7179 20.8366H12.8384C10.8682 20.8366 9.27103 19.2589 9.27103 17.3128C9.27103 15.3666 10.8682 13.7889 12.8384 13.7889H22.3513C24.3215 13.7889 25.9187 15.3666 25.9187 17.3128C25.9187 19.2352 24.3602 20.7981 22.4233 20.8359L22.4229 20.8366H21.5528C21.0797 20.8366 20.626 20.651 20.2915 20.3206L19.3064 19.3475C18.849 18.8956 18.2578 18.6062 17.6247 18.5169L17.5949 18.4874H12.8384C12.1817 18.4874 11.6493 17.9615 11.6493 17.3128C11.6493 16.6641 12.1817 16.1382 12.8384 16.1382H22.3513C23.0081 16.1382 23.5405 16.6641 23.5405 17.3128C23.5405 17.9615 23.0081 18.4874 22.3513 18.4874H19.9731L20.814 19.318C21.0369 19.5382 21.3394 19.662 21.6548 19.662H22.3513C23.6648 19.662 24.7296 18.6102 24.7296 17.3128C24.7296 16.0153 23.6648 14.9635 22.3513 14.9635H12.8384C11.5249 14.9635 10.4602 16.0153 10.4602 17.3128C10.4602 18.6102 11.5249 19.662 12.8384 19.662H17.2043C17.6774 19.662 18.1311 19.8476 18.4656 20.178L19.4507 21.1511C20.0082 21.7018 20.7643 22.0112 21.5528 22.0112H22.6486V22.0022C25.1371 21.8506 27.1078 19.809 27.1078 17.3128C27.1078 14.7179 24.9782 12.6143 22.3513 12.6143H12.8384C10.2115 12.6143 8.08191 14.7179 8.08191 17.3128C8.08191 19.9077 10.2115 22.0112 12.8384 22.0112H15.7179C16.191 22.0112 16.6447 22.1969 16.9792 22.5273L17.9643 23.5004C18.5218 24.0511 19.2779 24.3605 20.0664 24.3605H22.3513C26.2917 24.3605 29.4861 21.2051 29.4861 17.3128C29.4861 13.4204 26.2917 10.2651 22.3513 10.2651H12.8384C8.89798 10.2651 5.70368 13.4204 5.70368 17.3128C5.70368 21.2051 8.89798 24.3605 12.8384 24.3605H14.4443C14.9173 24.3605 15.371 24.5461 15.7055 24.8765L16.6907 25.8496C17.2482 26.4003 18.0043 26.7097 18.7927 26.7097H22.3513C27.6052 26.7097 31.8643 22.5026 31.8643 17.3128C31.8643 12.123 27.6052 7.91583 22.3513 7.91583L12.8384 7.91583C7.58453 7.91583 3.32544 12.123 3.32544 17.3128C3.32544 22.5026 7.58453 26.7097 12.8384 26.7097Z" fill="#212326"/>
</g>
<defs>
<clipPath id="clip0_211_2072">
<rect width="28.5388" height="18.7939" fill="white" transform="translate(3.32544 7.91583)"/>
</clipPath>
</defs>
</svg>
