<svg width="34" height="34" viewBox="0 0 34 34" fill="none" xmlns="http://www.w3.org/2000/svg">
<g clip-path="url(#clip0_211_2049)">
<path fill-rule="evenodd" clip-rule="evenodd" d="M10.0459 10.0838L3.09509 16.9648C4.48538 18.3411 6.07357 19.501 7.80514 20.4085C8.28376 21.6653 9.03398 22.844 10.0558 23.8555C13.9001 27.6611 20.1329 27.6611 23.9772 23.8555C24.999 22.844 25.7492 21.6653 26.2278 20.4084C27.9594 19.501 29.5476 18.3411 30.9379 16.9648L23.9927 10.0894C23.9875 10.0843 23.9824 10.0792 23.9772 10.074C20.1329 6.26838 13.9001 6.26838 10.0558 10.074C10.0525 10.0773 10.0492 10.0806 10.0459 10.0838ZM23.3121 21.6499C21.2865 22.3267 19.1602 22.6732 17.0165 22.6732C14.8728 22.6732 12.7465 22.3267 10.721 21.6499C10.9404 21.9382 11.1827 22.2148 11.4479 22.4774C14.5234 25.5219 19.5096 25.5219 22.585 22.4774C22.8502 22.2148 23.0926 21.9382 23.3121 21.6499ZM11.5907 11.3143C12.113 11.6559 12.6683 11.9482 13.2494 12.1865C14.4437 12.6762 15.7237 12.9283 17.0165 12.9283C18.3092 12.9283 19.5893 12.6762 20.7836 12.1865C21.3647 11.9482 21.92 11.6559 22.4423 11.3143C19.4053 8.45359 14.6277 8.4536 11.5907 11.3143Z" fill="#3B4158"/>
</g>
<defs>
<clipPath id="clip0_211_2049">
<rect width="27.8428" height="19.4899" fill="white" transform="translate(3.09509 7.21979)"/>
</clipPath>
</defs>
</svg>
