<svg width="37" height="34" viewBox="0 0 37 34" fill="none" xmlns="http://www.w3.org/2000/svg">
<g clip-path="url(#clip0_211_2076)">
<path d="M8.81751 10.004C7.40398 10.004 6.04836 10.5655 5.04885 11.5651L1.78686 14.827C0.787349 15.8266 0.22583 17.1822 0.22583 18.5957C0.22583 21.5392 2.61202 23.9254 5.55554 23.9254C6.96907 23.9254 8.32469 23.3639 9.3242 22.3644L11.5805 20.108C11.5805 20.108 11.5806 20.1081 11.5805 20.108L18.1547 13.5338C18.6321 13.0565 19.2795 12.7883 19.9546 12.7883C21.0849 12.7883 22.0431 13.5249 22.3753 14.5443L24.4501 12.4695C23.5036 10.987 21.8439 10.004 19.9546 10.004C18.5411 10.004 17.1855 10.5655 16.186 11.5651L7.35544 20.3956C6.87807 20.873 6.23064 21.1411 5.55554 21.1411C4.14973 21.1411 3.01011 20.0015 3.01011 18.5957C3.01011 17.9206 3.27828 17.2732 3.75564 16.7958L7.01761 13.5338C7.49498 13.0565 8.14241 12.7883 8.81751 12.7883C9.94779 12.7883 10.9059 13.525 11.2382 14.5444L13.313 12.4695C12.3665 10.9871 10.7068 10.004 8.81751 10.004Z" fill="#394149"/>
<path d="M18.4925 20.3956C18.0152 20.873 17.3677 21.1411 16.6926 21.1411C15.5626 21.1411 14.6044 20.4047 14.2721 19.3855L12.1974 21.4603C13.1439 22.9425 14.8035 23.9254 16.6926 23.9254C18.1062 23.9254 19.4618 23.3639 20.4613 22.3644L29.2918 13.5338C29.7692 13.0565 30.4166 12.7883 31.0917 12.7883C32.4976 12.7883 33.6372 13.9279 33.6372 15.3337C33.6372 16.0088 33.369 16.6563 32.8916 17.1336L29.6297 20.3956C29.1523 20.873 28.5049 21.1411 27.8298 21.1411C26.6996 21.1411 25.7414 20.4046 25.4092 19.3853L23.3344 21.4601C24.2809 22.9425 25.9405 23.9254 27.8298 23.9254C29.2433 23.9254 30.5989 23.3639 31.5984 22.3644L34.8604 19.1024C35.8599 18.1029 36.4214 16.7473 36.4214 15.3337C36.4214 12.3902 34.0353 10.004 31.0917 10.004C29.6782 10.004 28.3226 10.5655 27.3231 11.5651L18.4925 20.3956Z" fill="#394149"/>
</g>
<defs>
<clipPath id="clip0_211_2076">
<rect width="36.1956" height="13.9214" fill="white" transform="translate(0.22583 10.004)"/>
</clipPath>
</defs>
</svg>
