<svg viewBox="0 0 45 55" xmlns="http://www.w3.org/2000/svg">
  <defs></defs>
  <mask id="path-1-inside-1_212_1413" fill="white">
    <path d="M 562.006 249.881 C 561.926 249.881 561.851 249.859 561.785 249.824 L 561.785 249.825 C 561.785 249.951 561.736 250.07 561.646 250.159 C 561.557 250.248 561.438 250.297 561.312 250.297 C 561.231 250.297 561.155 250.275 561.088 250.238 C 561.081 250.354 561.035 250.462 560.952 250.544 C 560.863 250.634 560.745 250.683 560.618 250.683 C 560.367 250.683 560.163 250.485 560.148 250.238 C 560.07 250.28 559.983 250.302 559.892 250.296 C 559.645 250.28 559.451 250.067 559.451 249.81 L 559.451 247.685 L 559.209 248.104 C 559.117 248.264 558.945 248.364 558.759 248.364 C 558.668 248.364 558.579 248.34 558.5 248.295 C 558.401 248.237 558.33 248.146 558.301 248.036 C 558.272 247.926 558.287 247.811 558.344 247.713 C 558.344 247.713 559.136 246.341 559.184 246.257 C 559.19 246.244 559.206 246.208 559.22 246.176 C 559.233 246.147 559.245 246.116 559.256 246.085 C 559.495 245.411 560.086 244.992 560.799 244.992 C 561.725 244.992 562.479 245.809 562.479 246.813 L 562.479 249.409 C 562.479 249.535 562.43 249.654 562.34 249.743 C 562.251 249.832 562.133 249.881 562.006 249.881 L 562.006 249.881 Z M 560.799 245.243 C 560.186 245.243 559.698 245.589 559.492 246.169 C 559.479 246.206 559.466 246.243 559.45 246.279 C 559.403 246.382 559.403 246.382 559.39 246.397 L 559.389 246.396 C 559.324 246.518 559.132 246.85 558.561 247.838 C 558.538 247.879 558.532 247.926 558.544 247.971 C 558.556 248.016 558.585 248.054 558.625 248.077 C 558.75 248.149 558.921 248.102 558.992 247.978 L 559.468 247.153 C 559.497 247.104 559.554 247.08 559.61 247.095 C 559.664 247.11 559.703 247.159 559.703 247.216 L 559.703 249.81 C 559.703 249.933 559.795 250.038 559.908 250.046 C 559.974 250.049 560.035 250.027 560.081 249.981 C 560.123 249.94 560.145 249.884 560.145 249.825 L 560.145 248.128 C 560.145 248.059 560.202 248.003 560.271 248.003 C 560.34 248.003 560.397 248.059 560.397 248.128 L 560.397 250.21 C 560.397 250.332 560.496 250.432 560.618 250.432 C 560.677 250.432 560.733 250.409 560.775 250.367 C 560.817 250.325 560.84 250.27 560.84 250.21 L 560.84 248.128 C 560.84 248.059 560.896 248.003 560.965 248.003 C 561.035 248.003 561.091 248.059 561.091 248.128 L 561.091 249.805 L 561.091 249.825 C 561.091 249.947 561.19 250.046 561.312 250.046 C 561.371 250.046 561.427 250.023 561.469 249.981 C 561.511 249.94 561.534 249.884 561.534 249.825 L 561.534 248.128 C 561.534 248.059 561.59 248.003 561.659 248.003 C 561.729 248.003 561.785 248.059 561.785 248.128 L 561.785 249.409 C 561.785 249.531 561.884 249.63 562.006 249.63 C 562.065 249.63 562.121 249.607 562.163 249.566 C 562.205 249.524 562.227 249.468 562.227 249.409 L 562.228 246.813 C 562.228 245.948 561.587 245.243 560.799 245.243 L 560.799 245.243 Z"></path>
  </mask>
  <mask id="path-3-inside-2_212_1413" fill="white">
    <path d="M 557.07 251.685 L 558.893 250.592 C 559.113 250.46 559.396 250.516 559.537 250.72 C 559.588 250.794 559.615 250.88 559.619 250.968 C 559.687 250.933 559.761 250.913 559.836 250.913 C 559.874 250.913 559.913 250.918 559.951 250.928 C 560.074 250.958 560.177 251.035 560.242 251.143 C 560.307 251.252 560.326 251.379 560.295 251.501 C 560.267 251.614 560.198 251.709 560.102 251.775 C 560.169 251.814 560.227 251.868 560.268 251.937 C 560.333 252.045 560.352 252.172 560.322 252.294 C 560.291 252.417 560.215 252.52 560.106 252.585 L 560.105 252.585 C 560.171 252.625 560.228 252.678 560.269 252.746 C 560.334 252.854 560.353 252.981 560.322 253.104 C 560.291 253.226 560.215 253.329 560.107 253.394 L 557.881 254.729 C 557.465 254.978 556.985 255.064 556.529 254.971 C 556.068 254.877 555.687 254.612 555.455 254.226 C 555.088 253.614 555.143 252.892 555.598 252.34 C 555.619 252.315 555.64 252.29 555.658 252.263 C 555.678 252.235 555.701 252.202 555.709 252.191 C 555.756 252.106 556.525 250.721 556.525 250.721 C 556.602 250.581 556.748 250.502 556.898 250.502 C 556.968 250.502 557.039 250.519 557.105 250.556 C 557.184 250.6 557.25 250.664 557.297 250.742 C 557.392 250.901 557.396 251.101 557.306 251.262 L 557.07 251.685 Z M 557.081 250.871 C 557.057 250.83 557.024 250.798 556.983 250.775 C 556.898 250.728 556.791 250.759 556.745 250.843 C 556.194 251.834 556.007 252.172 555.934 252.292 L 555.936 252.292 C 555.93 252.313 555.93 252.313 555.864 252.407 C 555.841 252.439 555.817 252.47 555.792 252.5 C 555.4 252.974 555.355 253.571 555.67 254.097 C 555.865 254.422 556.188 254.645 556.579 254.725 C 556.974 254.805 557.39 254.731 557.751 254.514 L 559.977 253.179 C 560.028 253.148 560.064 253.1 560.078 253.042 C 560.093 252.985 560.084 252.926 560.053 252.875 C 559.991 252.77 559.854 252.736 559.75 252.799 L 558.651 253.458 C 558.592 253.493 558.515 253.474 558.479 253.415 C 558.443 253.355 558.463 253.278 558.522 253.242 L 559.62 252.584 L 559.977 252.37 C 560.028 252.339 560.064 252.291 560.078 252.234 C 560.092 252.176 560.083 252.117 560.053 252.066 C 559.99 251.961 559.854 251.927 559.749 251.99 L 558.294 252.863 C 558.235 252.898 558.158 252.879 558.122 252.82 C 558.086 252.76 558.106 252.683 558.165 252.647 L 559.951 251.576 C 560.001 251.546 560.037 251.497 560.052 251.44 C 560.066 251.383 560.057 251.323 560.027 251.272 C 559.996 251.222 559.948 251.186 559.89 251.171 C 559.833 251.157 559.773 251.166 559.723 251.196 L 559.392 251.395 C 559.392 251.395 559.392 251.395 559.392 251.395 L 559.392 251.395 L 557.937 252.267 C 557.878 252.303 557.801 252.284 557.765 252.224 C 557.729 252.165 557.749 252.088 557.808 252.052 L 559.263 251.179 C 559.314 251.149 559.35 251.101 559.364 251.043 C 559.38 250.981 559.368 250.916 559.33 250.863 C 559.266 250.769 559.127 250.744 559.023 250.807 L 556.798 252.142 C 556.75 252.171 556.687 252.164 556.646 252.124 C 556.605 252.085 556.596 252.023 556.624 251.973 L 557.086 251.14 C 557.133 251.056 557.131 250.954 557.081 250.871 L 557.081 250.871 Z"></path>
  </mask>
  <mask id="mask-1" fill="white">
    <path d="M 36.991 27.402 C 36.59 27.402 36.214 27.291 35.883 27.116 L 35.883 27.121 C 35.883 27.753 35.637 28.35 35.185 28.796 C 34.739 29.243 34.142 29.489 33.51 29.489 C 33.103 29.489 32.722 29.378 32.386 29.193 C 32.351 29.775 32.12 30.317 31.703 30.728 C 31.257 31.18 30.665 31.425 30.028 31.425 C 28.768 31.425 27.745 30.432 27.67 29.193 C 27.278 29.403 26.842 29.514 26.385 29.484 C 25.146 29.403 24.173 28.335 24.173 27.045 L 24.173 16.384 L 22.959 18.486 C 22.497 19.289 21.634 19.791 20.701 19.791 C 20.245 19.791 19.798 19.67 19.402 19.444 C 18.905 19.153 18.549 18.697 18.403 18.145 C 18.258 17.593 18.333 17.016 18.619 16.524 C 18.619 16.524 22.592 9.641 22.833 9.219 C 22.863 9.154 22.944 8.973 23.014 8.813 C 23.079 8.667 23.139 8.512 23.195 8.356 C 24.394 4.975 27.359 2.873 30.936 2.873 C 35.582 2.873 39.364 6.972 39.364 12.009 L 39.364 25.033 C 39.364 25.666 39.119 26.263 38.667 26.709 C 38.22 27.156 37.628 27.402 36.991 27.402 Z M 30.936 4.132 C 27.86 4.132 25.412 5.868 24.379 8.778 C 24.313 8.963 24.248 9.149 24.168 9.33 C 23.932 9.846 23.932 9.846 23.867 9.922 L 23.862 9.917 C 23.536 10.529 22.572 12.195 19.708 17.151 C 19.592 17.357 19.562 17.593 19.622 17.819 C 19.683 18.045 19.828 18.235 20.029 18.351 C 20.656 18.712 21.514 18.476 21.87 17.854 L 24.258 13.715 C 24.404 13.469 24.69 13.348 24.971 13.424 C 25.241 13.499 25.437 13.745 25.437 14.031 L 25.437 27.045 C 25.437 27.662 25.899 28.189 26.466 28.229 C 26.797 28.244 27.103 28.134 27.334 27.903 C 27.544 27.698 27.655 27.417 27.655 27.121 L 27.655 18.606 C 27.655 18.26 27.941 17.979 28.287 17.979 C 28.633 17.979 28.919 18.26 28.919 18.606 L 28.919 29.052 C 28.919 29.664 29.416 30.166 30.028 30.166 C 30.324 30.166 30.605 30.051 30.815 29.84 C 31.026 29.629 31.141 29.353 31.141 29.052 L 31.141 18.606 C 31.141 18.26 31.422 17.979 31.769 17.979 C 32.12 17.979 32.401 18.26 32.401 18.606 L 32.401 27.02 L 32.401 27.121 C 32.401 27.733 32.897 28.229 33.51 28.229 C 33.806 28.229 34.086 28.114 34.297 27.903 C 34.508 27.698 34.623 27.417 34.623 27.121 L 34.623 18.606 C 34.623 18.26 34.904 17.979 35.25 17.979 C 35.602 17.979 35.883 18.26 35.883 18.606 L 35.883 25.033 C 35.883 25.646 36.379 26.142 36.991 26.142 C 37.287 26.142 37.568 26.027 37.779 25.821 C 37.99 25.61 38.1 25.329 38.1 25.033 L 38.105 12.009 C 38.105 7.669 34.889 4.132 30.936 4.132 Z"></path>
  </mask>
  <mask id="mask-2" fill="white">
    <path d="M 12.227 36.452 L 21.373 30.968 C 22.477 30.306 23.897 30.587 24.604 31.61 C 24.86 31.982 24.995 32.413 25.016 32.855 C 25.357 32.679 25.728 32.579 26.104 32.579 C 26.295 32.579 26.491 32.604 26.681 32.654 C 27.298 32.804 27.815 33.191 28.141 33.733 C 28.467 34.28 28.563 34.917 28.407 35.529 C 28.267 36.096 27.92 36.572 27.439 36.903 C 27.775 37.099 28.066 37.37 28.272 37.716 C 28.598 38.258 28.693 38.895 28.543 39.507 C 28.387 40.125 28.006 40.641 27.459 40.967 L 27.454 40.967 C 27.785 41.168 28.071 41.434 28.277 41.775 C 28.603 42.317 28.698 42.954 28.543 43.571 C 28.387 44.183 28.006 44.7 27.464 45.026 L 16.296 51.724 C 14.209 52.974 11.801 53.405 9.513 52.938 C 7.2 52.467 5.288 51.137 4.124 49.201 C 2.283 46.13 2.559 42.508 4.842 39.738 C 4.947 39.613 5.053 39.487 5.143 39.352 C 5.243 39.211 5.359 39.046 5.399 38.991 C 5.635 38.564 9.493 31.615 9.493 31.615 C 9.879 30.913 10.611 30.517 11.364 30.517 C 11.715 30.517 12.071 30.602 12.403 30.788 C 12.799 31.008 13.13 31.329 13.366 31.721 C 13.842 32.518 13.863 33.522 13.411 34.33 L 12.227 36.452 Z M 12.282 32.368 C 12.162 32.162 11.996 32.002 11.79 31.886 C 11.364 31.65 10.827 31.806 10.596 32.227 C 7.832 37.2 6.894 38.895 6.528 39.497 L 6.538 39.497 C 6.507 39.603 6.507 39.603 6.176 40.074 C 6.061 40.235 5.941 40.39 5.815 40.541 C 3.848 42.919 3.623 45.914 5.203 48.553 C 6.181 50.184 7.802 51.303 9.764 51.704 C 11.745 52.106 13.832 51.734 15.644 50.646 L 26.812 43.948 C 27.068 43.792 27.248 43.551 27.318 43.26 C 27.394 42.974 27.348 42.678 27.193 42.422 C 26.882 41.896 26.195 41.725 25.673 42.041 L 20.159 45.347 C 19.863 45.523 19.477 45.428 19.296 45.132 C 19.115 44.831 19.216 44.444 19.512 44.264 L 25.021 40.962 L 26.812 39.889 C 27.068 39.733 27.248 39.492 27.318 39.206 C 27.389 38.915 27.343 38.619 27.193 38.364 C 26.877 37.837 26.195 37.666 25.668 37.982 L 18.368 42.362 C 18.072 42.538 17.686 42.442 17.505 42.146 C 17.324 41.845 17.425 41.459 17.721 41.278 L 26.681 35.905 C 26.932 35.755 27.113 35.509 27.188 35.223 C 27.258 34.937 27.213 34.636 27.063 34.38 C 26.907 34.129 26.666 33.948 26.375 33.873 C 26.089 33.803 25.788 33.848 25.537 33.999 L 23.877 34.997 C 23.877 34.997 23.877 34.997 23.877 34.997 L 16.577 39.372 C 16.281 39.553 15.894 39.457 15.714 39.156 C 15.533 38.86 15.634 38.474 15.93 38.293 L 23.229 33.913 C 23.485 33.763 23.666 33.522 23.736 33.231 C 23.816 32.92 23.756 32.594 23.566 32.328 C 23.245 31.856 22.547 31.731 22.025 32.047 L 10.862 38.745 C 10.622 38.89 10.305 38.855 10.1 38.655 C 9.894 38.459 9.849 38.148 9.989 37.897 L 12.307 33.718 C 12.543 33.296 12.533 32.784 12.282 32.368 Z"></path>
  </mask>
  <path d="M 36.991 27.401 C 36.59 27.401 36.214 27.291 35.883 27.115 L 35.883 27.12 C 35.883 27.752 35.632 28.349 35.185 28.796 C 34.739 29.242 34.142 29.488 33.51 29.488 C 33.098 29.488 32.722 29.378 32.386 29.192 C 32.351 29.774 32.12 30.316 31.703 30.733 C 31.257 31.179 30.66 31.425 30.028 31.425 C 28.768 31.425 27.745 30.432 27.67 29.192 C 27.278 29.403 26.842 29.513 26.385 29.483 C 25.146 29.403 24.173 28.334 24.173 27.045 L 24.173 16.379 L 22.959 18.486 C 22.497 19.289 21.634 19.79 20.701 19.79 C 20.244 19.79 19.798 19.67 19.401 19.444 C 18.905 19.153 18.549 18.697 18.403 18.145 C 18.258 17.593 18.333 17.016 18.619 16.524 C 18.619 16.524 22.592 9.641 22.833 9.219 C 22.863 9.154 22.944 8.973 23.014 8.813 C 23.079 8.662 23.139 8.512 23.194 8.356 C 24.393 4.975 27.359 2.873 30.936 2.873 C 35.582 2.873 39.359 6.972 39.359 12.009 L 39.359 25.033 C 39.359 25.665 39.114 26.262 38.667 26.709 C 38.221 27.155 37.624 27.401 36.991 27.401 Z M 30.936 4.132 C 27.86 4.132 25.412 5.868 24.378 8.778 C 24.313 8.963 24.248 9.149 24.168 9.325 C 23.932 9.846 23.932 9.846 23.867 9.922 L 23.862 9.917 C 23.536 10.529 22.572 12.194 19.707 17.151 C 19.592 17.357 19.562 17.593 19.622 17.819 C 19.682 18.044 19.828 18.235 20.029 18.35 C 20.656 18.712 21.514 18.476 21.87 17.854 L 24.258 13.715 C 24.403 13.469 24.689 13.348 24.965 13.424 C 25.241 13.499 25.437 13.745 25.437 14.031 L 25.437 27.045 C 25.437 27.662 25.899 28.189 26.466 28.229 C 26.797 28.244 27.103 28.134 27.333 27.903 C 27.539 27.697 27.655 27.416 27.655 27.12 L 27.655 18.606 C 27.655 18.26 27.941 17.979 28.287 17.979 C 28.633 17.979 28.919 18.26 28.919 18.606 L 28.919 29.052 C 28.919 29.664 29.416 30.166 30.028 30.166 C 30.324 30.166 30.605 30.05 30.815 29.84 C 31.021 29.629 31.136 29.353 31.136 29.052 L 31.136 18.606 C 31.136 18.26 31.422 17.979 31.769 17.979 C 32.115 17.979 32.401 18.26 32.401 18.606 L 32.401 27.02 L 32.401 27.12 C 32.401 27.732 32.897 28.229 33.51 28.229 C 33.806 28.229 34.087 28.114 34.297 27.903 C 34.508 27.697 34.618 27.416 34.618 27.12 L 34.618 18.606 C 34.618 18.26 34.904 17.979 35.25 17.979 C 35.597 17.979 35.883 18.26 35.883 18.606 L 35.883 25.033 C 35.883 25.645 36.379 26.142 36.991 26.142 C 37.287 26.142 37.568 26.027 37.779 25.821 C 37.985 25.61 38.1 25.329 38.1 25.033 L 38.1 12.009 C 38.1 7.669 34.889 4.132 30.936 4.132 Z" fill="#4CAF4F" style=""></path>
  <path d="M 36.991 27.401 L 36.991 25.169 L 44.883 25.169 L 38.16 29.303 L 36.991 27.401 Z M 35.883 27.115 L 33.645 27.115 L 33.645 23.383 L 36.936 25.144 L 35.883 27.115 Z M 35.185 28.796 L 33.605 27.216 L 33.61 27.216 L 35.185 28.796 Z M 32.386 29.192 L 30.153 29.062 L 30.359 25.545 L 33.454 27.231 L 32.386 29.192 Z M 31.703 30.733 L 33.284 32.308 L 31.703 30.733 Z M 27.67 29.192 L 26.606 27.226 L 29.692 25.56 L 29.902 29.062 L 27.67 29.192 Z M 26.385 29.483 L 26.24 31.711 L 26.385 29.483 Z M 24.173 16.379 L 22.241 15.265 L 26.41 8.045 L 26.41 16.379 L 24.173 16.379 Z M 22.959 18.486 L 21.022 17.372 L 21.027 17.367 L 22.959 18.486 Z M 19.401 19.444 L 18.288 21.381 L 18.278 21.376 L 19.401 19.444 Z M 18.403 18.145 L 20.56 17.563 L 20.56 17.568 L 18.403 18.145 Z M 18.619 16.524 L 16.687 15.4 L 17.329 14.286 L 18.619 14.286 L 18.619 16.524 Z M 22.833 9.219 L 24.87 10.142 L 24.825 10.238 L 24.77 10.333 L 22.833 9.219 Z M 23.014 8.813 L 20.972 7.905 L 23.014 8.813 Z M 23.194 8.356 L 25.297 9.104 L 23.194 8.356 Z M 39.359 12.009 L 37.127 12.009 L 39.359 12.009 Z M 39.359 25.033 L 41.597 25.033 L 39.359 25.033 Z M 38.667 26.709 L 40.248 28.284 L 40.248 28.289 L 38.667 26.709 Z M 36.991 27.401 L 36.991 29.639 L 29.1 29.639 L 35.822 25.5 L 36.991 27.401 Z M 30.936 4.132 L 30.936 1.899 L 33.896 1.899 L 33.083 4.744 L 30.936 4.132 Z M 24.378 8.778 L 26.486 9.525 L 26.486 9.53 L 24.378 8.778 Z M 24.168 9.325 L 26.205 10.233 L 26.205 10.238 L 24.168 9.325 Z M 23.867 9.922 L 25.547 11.392 L 24.087 13.062 L 22.407 11.612 L 23.867 9.922 Z M 23.862 9.917 L 21.885 8.868 L 23.199 6.395 L 25.322 8.226 L 23.862 9.917 Z M 19.707 17.151 L 21.644 18.27 L 19.707 17.151 Z M 19.622 17.819 L 17.465 18.395 L 17.46 18.39 L 19.622 17.819 Z M 20.029 18.35 L 18.915 20.287 L 18.91 20.282 L 20.029 18.35 Z M 21.87 17.854 L 19.933 16.745 L 19.933 16.74 L 21.87 17.854 Z M 24.258 13.715 L 22.326 12.601 L 22.326 12.596 L 24.258 13.715 Z M 24.965 13.424 L 24.388 15.581 L 24.383 15.581 L 24.965 13.424 Z M 26.466 28.229 L 26.35 30.457 L 26.32 30.457 L 26.466 28.229 Z M 27.333 27.903 L 28.914 29.483 L 28.909 29.483 L 27.333 27.903 Z M 28.919 18.606 L 31.152 18.606 L 28.919 18.606 Z M 28.919 29.052 L 26.681 29.052 L 28.919 29.052 Z M 30.815 29.84 L 32.396 31.42 L 32.391 31.42 L 30.815 29.84 Z M 32.401 18.606 L 34.633 18.606 L 32.401 18.606 Z M 32.401 27.02 L 30.163 27.02 L 32.401 27.02 Z M 34.297 27.903 L 35.873 29.483 L 35.873 29.488 L 34.297 27.903 Z M 35.883 18.606 L 38.115 18.606 L 35.883 18.606 Z M 35.883 25.033 L 33.645 25.033 L 35.883 25.033 Z M 37.779 25.821 L 39.354 27.396 L 39.354 27.401 L 37.779 25.821 Z M 38.1 25.033 L 35.868 25.033 L 38.1 25.033 Z M 38.1 12.009 L 40.333 12.009 L 38.1 12.009 Z M 30.936 4.132 L 30.936 6.364 L 27.976 6.364 L 28.788 3.52 L 30.936 4.132 Z M 36.991 29.639 C 36.169 29.639 35.436 29.408 34.824 29.082 L 36.936 25.144 C 36.966 25.159 36.981 25.169 36.991 25.169 C 36.996 25.169 36.996 25.169 36.991 25.169 L 36.991 29.639 Z M 38.115 27.115 L 38.115 27.12 L 33.645 27.12 L 33.645 27.115 L 38.115 27.115 Z M 38.115 27.12 C 38.115 28.344 37.634 29.508 36.766 30.376 L 33.61 27.216 C 33.625 27.201 33.635 27.185 33.64 27.175 C 33.64 27.16 33.645 27.145 33.645 27.12 L 38.115 27.12 Z M 36.766 30.376 C 35.898 31.239 34.734 31.721 33.51 31.721 L 33.51 27.256 C 33.535 27.256 33.55 27.251 33.565 27.246 C 33.575 27.241 33.59 27.236 33.605 27.216 L 36.766 30.376 Z M 33.51 31.721 C 32.677 31.721 31.934 31.49 31.317 31.154 L 33.454 27.231 C 33.479 27.246 33.5 27.251 33.51 27.256 C 33.515 27.256 33.515 27.256 33.51 27.256 L 33.51 31.721 Z M 34.613 29.323 C 34.548 30.422 34.107 31.49 33.284 32.308 L 30.123 29.152 C 30.133 29.142 30.138 29.137 30.143 29.127 C 30.148 29.117 30.153 29.097 30.153 29.062 L 34.613 29.323 Z M 33.284 32.308 C 32.416 33.176 31.252 33.658 30.028 33.658 L 30.028 29.192 C 30.053 29.192 30.073 29.187 30.083 29.182 C 30.093 29.177 30.108 29.167 30.123 29.152 L 33.284 32.308 Z M 30.028 33.658 C 27.564 33.658 25.583 31.721 25.442 29.323 L 29.902 29.062 C 29.902 29.097 29.917 29.132 29.947 29.157 C 29.957 29.172 29.972 29.177 29.983 29.182 C 29.993 29.187 30.008 29.192 30.028 29.192 L 30.028 33.658 Z M 28.733 31.159 C 28.011 31.545 27.158 31.771 26.24 31.711 L 26.526 27.256 C 26.526 27.256 26.531 27.256 26.546 27.256 C 26.556 27.251 26.581 27.246 26.606 27.226 L 28.733 31.159 Z M 26.24 31.711 C 23.761 31.55 21.94 29.443 21.94 27.045 L 26.41 27.045 C 26.41 27.12 26.435 27.18 26.471 27.216 C 26.506 27.256 26.526 27.256 26.531 27.256 L 26.24 31.711 Z M 21.94 27.045 L 21.94 16.379 L 26.41 16.379 L 26.41 27.045 L 21.94 27.045 Z M 26.109 17.497 L 24.895 19.6 L 21.027 17.367 L 22.241 15.265 L 26.109 17.497 Z M 24.895 19.6 C 24.032 21.1 22.427 22.023 20.701 22.023 L 20.701 17.558 C 20.836 17.558 20.962 17.477 21.022 17.372 L 24.895 19.6 Z M 20.701 22.023 C 19.853 22.023 19.025 21.802 18.288 21.381 L 20.51 17.502 C 20.57 17.538 20.636 17.558 20.701 17.558 L 20.701 22.023 Z M 18.278 21.376 C 17.274 20.794 16.547 19.845 16.246 18.722 L 20.56 17.568 C 20.56 17.558 20.555 17.548 20.54 17.533 C 20.53 17.517 20.52 17.512 20.52 17.512 L 18.278 21.376 Z M 16.246 18.722 C 15.945 17.598 16.1 16.409 16.687 15.4 L 20.55 17.643 C 20.555 17.638 20.56 17.623 20.56 17.603 C 20.565 17.588 20.56 17.573 20.56 17.563 L 16.246 18.722 Z M 18.619 14.286 C 17.52 14.577 16.702 15.375 16.697 15.385 C 16.692 15.385 16.692 15.39 16.692 15.395 C 16.692 15.395 16.687 15.395 16.687 15.395 C 16.687 15.395 16.687 15.4 16.687 15.4 C 16.687 15.4 16.687 15.4 16.687 15.395 C 16.692 15.395 16.692 15.39 16.697 15.385 C 16.702 15.37 16.712 15.35 16.727 15.325 C 16.757 15.275 16.803 15.205 16.858 15.109 C 16.963 14.919 17.119 14.648 17.309 14.322 C 17.686 13.669 18.187 12.796 18.699 11.913 C 19.728 10.137 20.776 8.316 20.897 8.11 L 24.77 10.333 C 24.649 10.544 23.591 12.375 22.567 14.146 C 22.055 15.034 21.554 15.907 21.177 16.559 C 20.987 16.885 20.831 17.151 20.721 17.342 C 20.671 17.437 20.626 17.512 20.596 17.563 C 20.58 17.588 20.57 17.608 20.56 17.618 C 20.56 17.628 20.555 17.633 20.555 17.638 C 20.55 17.638 20.55 17.643 20.55 17.643 C 20.55 17.643 20.55 17.648 20.545 17.648 C 20.545 17.653 20.54 17.658 20.54 17.658 C 20.535 17.668 19.712 18.466 18.619 18.757 L 18.619 14.286 Z M 20.801 8.296 C 20.826 8.241 20.902 8.07 20.972 7.905 L 25.056 9.721 C 24.985 9.876 24.9 10.067 24.87 10.142 L 20.801 8.296 Z M 20.972 7.905 C 21.007 7.839 21.037 7.749 21.087 7.609 L 25.297 9.104 C 25.236 9.274 25.156 9.49 25.056 9.721 L 20.972 7.905 Z M 21.087 7.609 C 22.602 3.339 26.41 0.64 30.936 0.64 L 30.936 5.105 C 28.307 5.105 26.18 6.605 25.297 9.104 L 21.087 7.609 Z M 30.936 0.64 C 36.981 0.64 41.597 5.913 41.597 12.009 L 37.127 12.009 C 37.127 8.03 34.182 5.105 30.936 5.105 L 30.936 0.64 Z M 41.597 12.009 L 41.597 25.033 L 37.127 25.033 L 37.127 12.009 L 41.597 12.009 Z M 41.597 25.033 C 41.597 26.257 41.115 27.421 40.248 28.284 L 37.087 25.133 C 37.107 25.113 37.112 25.098 37.117 25.088 C 37.122 25.073 37.127 25.058 37.127 25.033 L 41.597 25.033 Z M 40.248 28.289 C 39.38 29.157 38.216 29.639 36.991 29.639 L 36.991 25.169 C 37.017 25.169 37.037 25.164 37.047 25.159 C 37.057 25.154 37.072 25.149 37.087 25.128 L 40.248 28.289 Z M 35.822 25.5 L 38.16 29.303 L 35.822 25.5 Z M 30.936 6.364 C 28.814 6.364 27.203 7.503 26.486 9.525 L 22.276 8.03 C 23.621 4.237 26.912 1.899 30.936 1.899 L 30.936 6.364 Z M 26.486 9.53 C 26.415 9.726 26.32 9.977 26.205 10.233 L 22.126 8.416 C 22.171 8.316 22.216 8.201 22.276 8.025 L 26.486 9.53 Z M 26.205 10.238 C 26.104 10.463 26.019 10.659 25.954 10.79 C 25.914 10.87 25.843 10.995 25.748 11.136 C 25.653 11.276 25.557 11.382 25.547 11.392 L 22.186 8.452 C 22.191 8.447 22.191 8.452 22.186 8.452 C 22.186 8.457 22.176 8.467 22.166 8.482 C 22.136 8.512 22.106 8.552 22.071 8.607 C 22 8.707 21.96 8.788 21.955 8.793 C 21.955 8.798 21.955 8.798 21.965 8.778 C 21.97 8.763 21.98 8.743 21.995 8.707 C 22.025 8.642 22.066 8.552 22.126 8.416 L 26.205 10.238 Z M 22.407 11.612 L 22.402 11.607 L 25.322 8.226 L 25.327 8.231 L 22.407 11.612 Z M 25.833 10.96 C 25.482 11.622 24.484 13.348 21.644 18.27 L 17.776 16.037 C 20.656 11.045 21.589 9.435 21.885 8.868 L 25.833 10.96 Z M 21.644 18.27 C 21.82 17.964 21.87 17.588 21.78 17.242 L 17.46 18.39 C 17.249 17.593 17.359 16.75 17.776 16.032 L 21.644 18.27 Z M 21.775 17.237 C 21.684 16.895 21.458 16.594 21.142 16.414 L 18.91 20.282 C 18.192 19.871 17.676 19.193 17.465 18.395 L 21.775 17.237 Z M 21.142 16.414 C 20.886 16.268 20.641 16.268 20.47 16.313 C 20.299 16.359 20.079 16.484 19.933 16.745 L 23.806 18.967 C 22.833 20.663 20.606 21.26 18.915 20.287 L 21.142 16.414 Z M 19.933 16.74 L 22.326 12.601 L 26.195 14.833 L 23.801 18.972 L 19.933 16.74 Z M 22.326 12.596 C 22.974 11.482 24.288 10.925 25.552 11.266 L 24.383 15.581 C 25.096 15.772 25.833 15.455 26.19 14.833 L 22.326 12.596 Z M 25.547 11.266 C 26.797 11.602 27.67 12.736 27.67 14.031 L 23.199 14.031 C 23.199 14.758 23.686 15.39 24.388 15.581 L 25.547 11.266 Z M 27.67 14.031 L 27.67 27.045 L 23.199 27.045 L 23.199 14.031 L 27.67 14.031 Z M 27.67 27.045 C 27.67 26.789 27.574 26.558 27.419 26.383 C 27.263 26.207 26.992 26.022 26.616 25.996 L 26.32 30.457 C 24.439 30.331 23.199 28.696 23.199 27.045 L 27.67 27.045 Z M 26.586 25.996 C 26.32 25.981 25.999 26.082 25.753 26.323 L 28.909 29.483 C 28.206 30.191 27.268 30.507 26.35 30.457 L 26.586 25.996 Z M 25.753 26.328 C 25.542 26.538 25.422 26.829 25.422 27.12 L 29.892 27.12 C 29.892 28.008 29.541 28.856 28.914 29.483 L 25.753 26.328 Z M 25.422 27.12 L 25.422 18.606 L 29.892 18.606 L 29.892 27.12 L 25.422 27.12 Z M 25.422 18.606 C 25.422 17.026 26.706 15.746 28.287 15.746 L 28.287 20.212 C 29.17 20.212 29.892 19.494 29.892 18.606 L 25.422 18.606 Z M 28.287 15.746 C 29.867 15.746 31.152 17.026 31.152 18.606 L 26.681 18.606 C 26.681 19.494 27.404 20.212 28.287 20.212 L 28.287 15.746 Z M 31.152 18.606 L 31.152 29.052 L 26.681 29.052 L 26.681 18.606 L 31.152 18.606 Z M 31.152 29.052 C 31.152 28.435 30.65 27.933 30.028 27.933 L 30.028 32.398 C 28.181 32.398 26.681 30.898 26.681 29.052 L 31.152 29.052 Z M 30.028 27.933 C 29.737 27.933 29.446 28.048 29.235 28.259 L 32.391 31.42 C 31.764 32.052 30.916 32.398 30.028 32.398 L 30.028 27.933 Z M 29.235 28.264 C 29.024 28.475 28.904 28.761 28.904 29.052 L 33.374 29.052 C 33.374 29.94 33.023 30.788 32.396 31.42 L 29.235 28.264 Z M 28.904 29.052 L 28.904 18.606 L 33.374 18.606 L 33.374 29.052 L 28.904 29.052 Z M 28.904 18.606 C 28.904 17.026 30.188 15.746 31.769 15.746 L 31.769 20.212 C 32.657 20.212 33.374 19.494 33.374 18.606 L 28.904 18.606 Z M 31.769 15.746 C 33.349 15.746 34.633 17.026 34.633 18.606 L 30.163 18.606 C 30.163 19.494 30.886 20.212 31.769 20.212 L 31.769 15.746 Z M 34.633 18.606 L 34.633 27.02 L 30.163 27.02 L 30.163 18.606 L 34.633 18.606 Z M 34.633 27.02 L 34.633 27.12 L 30.163 27.12 L 30.163 27.02 L 34.633 27.02 Z M 34.633 27.12 C 34.633 26.498 34.132 25.996 33.51 25.996 L 33.51 30.462 C 31.663 30.462 30.163 28.967 30.163 27.12 L 34.633 27.12 Z M 33.51 25.996 C 33.214 25.996 32.928 26.117 32.722 26.323 L 35.873 29.488 C 35.245 30.11 34.403 30.462 33.51 30.462 L 33.51 25.996 Z M 32.717 26.323 C 32.506 26.538 32.386 26.829 32.386 27.12 L 36.856 27.12 C 36.856 28.003 36.505 28.856 35.873 29.483 L 32.717 26.323 Z M 32.386 27.12 L 32.386 18.606 L 36.856 18.606 L 36.856 27.12 L 32.386 27.12 Z M 32.386 18.606 C 32.386 17.026 33.67 15.741 35.25 15.741 L 35.25 20.212 C 36.139 20.212 36.856 19.489 36.856 18.606 L 32.386 18.606 Z M 35.25 15.741 C 36.831 15.741 38.115 17.026 38.115 18.606 L 33.65 18.606 C 33.65 19.494 34.367 20.212 35.25 20.212 L 35.25 15.741 Z M 38.115 18.606 L 38.115 25.033 L 33.645 25.033 L 33.65 18.606 L 38.115 18.606 Z M 38.115 25.033 C 38.115 24.411 37.614 23.909 36.991 23.909 L 36.991 28.375 C 35.145 28.375 33.645 26.879 33.645 25.033 L 38.115 25.033 Z M 36.991 23.909 C 36.695 23.909 36.409 24.03 36.199 24.24 L 39.354 27.401 C 38.727 28.028 37.879 28.375 36.991 28.375 L 36.991 23.909 Z M 36.199 24.24 C 35.983 24.451 35.868 24.742 35.868 25.033 L 40.333 25.033 C 40.333 25.916 39.987 26.764 39.354 27.396 L 36.199 24.24 Z M 35.868 25.033 L 35.868 12.009 L 40.333 12.009 L 40.333 25.033 L 35.868 25.033 Z M 35.868 12.009 C 35.868 8.697 33.459 6.364 30.936 6.364 L 30.936 1.899 C 36.314 1.899 40.333 6.635 40.333 12.009 L 35.868 12.009 Z M 28.788 3.52 L 33.083 4.744 L 28.788 3.52 Z" fill="#4CAF4F" mask="url(#mask-1)" style=""></path>
  <path d="M 12.227 36.452 L 21.373 30.968 C 22.477 30.306 23.897 30.587 24.604 31.611 C 24.86 31.982 24.996 32.413 25.016 32.855 C 25.357 32.679 25.728 32.579 26.104 32.579 C 26.295 32.579 26.491 32.604 26.681 32.654 C 27.298 32.805 27.815 33.191 28.141 33.733 C 28.467 34.28 28.563 34.917 28.407 35.529 C 28.267 36.096 27.92 36.572 27.439 36.904 C 27.775 37.099 28.066 37.37 28.272 37.716 C 28.598 38.258 28.693 38.895 28.543 39.507 C 28.387 40.125 28.001 40.641 27.459 40.967 L 27.454 40.967 C 27.785 41.168 28.071 41.434 28.272 41.775 C 28.598 42.317 28.693 42.954 28.543 43.571 C 28.387 44.183 28.006 44.7 27.459 45.026 L 16.296 51.724 C 14.209 52.978 11.801 53.41 9.513 52.938 C 7.2 52.467 5.288 51.142 4.124 49.201 C 2.283 46.13 2.559 42.508 4.842 39.738 C 4.947 39.613 5.052 39.487 5.143 39.352 C 5.243 39.211 5.359 39.046 5.399 38.991 C 5.634 38.564 9.493 31.616 9.493 31.616 C 9.879 30.913 10.611 30.517 11.364 30.517 C 11.715 30.517 12.071 30.602 12.403 30.788 C 12.799 31.009 13.13 31.33 13.366 31.721 C 13.842 32.519 13.863 33.522 13.411 34.33 L 12.227 36.452 Z M 12.282 32.368 C 12.162 32.162 11.996 32.002 11.79 31.887 C 11.364 31.651 10.827 31.806 10.596 32.228 C 7.832 37.2 6.894 38.895 6.533 39.497 L 6.538 39.497 C 6.507 39.603 6.507 39.603 6.176 40.074 C 6.061 40.235 5.941 40.391 5.815 40.541 C 3.853 42.924 3.623 45.914 5.203 48.553 C 6.186 50.184 7.802 51.303 9.764 51.704 C 11.745 52.11 13.832 51.734 15.644 50.645 L 26.812 43.948 C 27.068 43.792 27.248 43.551 27.318 43.265 C 27.394 42.974 27.349 42.678 27.193 42.422 C 26.877 41.896 26.195 41.725 25.668 42.041 L 20.159 45.347 C 19.863 45.523 19.477 45.428 19.296 45.132 C 19.115 44.831 19.216 44.444 19.512 44.264 L 25.021 40.962 L 26.812 39.889 C 27.068 39.733 27.248 39.492 27.318 39.206 C 27.389 38.915 27.344 38.619 27.193 38.364 C 26.877 37.837 26.195 37.666 25.668 37.982 L 18.368 42.362 C 18.072 42.538 17.686 42.443 17.505 42.146 C 17.324 41.845 17.425 41.459 17.721 41.279 L 26.681 35.905 C 26.932 35.755 27.113 35.509 27.188 35.223 C 27.258 34.937 27.213 34.636 27.058 34.38 C 26.907 34.129 26.666 33.949 26.375 33.873 C 26.089 33.803 25.788 33.848 25.537 33.999 L 23.877 34.997 C 23.877 34.997 23.877 34.997 23.877 34.997 L 16.577 39.372 C 16.281 39.553 15.894 39.457 15.714 39.156 C 15.533 38.86 15.634 38.474 15.93 38.293 L 23.229 33.913 C 23.485 33.763 23.661 33.522 23.736 33.231 C 23.816 32.92 23.756 32.594 23.566 32.328 C 23.245 31.856 22.547 31.731 22.025 32.047 L 10.862 38.745 C 10.621 38.89 10.305 38.855 10.1 38.655 C 9.894 38.459 9.849 38.148 9.989 37.897 L 12.307 33.718 C 12.543 33.296 12.533 32.785 12.282 32.368 Z" fill="#4CAF4F" style=""></path>
  <path d="M 12.227 36.452 L 13.376 38.369 L 6.232 42.658 L 10.275 35.368 L 12.227 36.452 Z M 21.373 30.968 L 22.522 32.88 L 22.522 32.885 L 21.373 30.968 Z M 24.604 31.611 L 22.768 32.88 L 24.604 31.611 Z M 25.016 32.855 L 26.049 34.837 L 22.944 36.457 L 22.783 32.96 L 25.016 32.855 Z M 26.681 32.654 L 27.223 30.487 L 26.681 32.654 Z M 28.141 33.733 L 30.058 32.584 L 28.141 33.733 Z M 28.407 35.529 L 26.24 34.987 L 28.407 35.529 Z M 27.439 36.904 L 26.305 38.825 L 23.28 37.039 L 26.18 35.057 L 27.439 36.904 Z M 28.272 37.716 L 26.355 38.865 L 26.355 38.86 L 28.272 37.716 Z M 28.543 39.507 L 30.705 40.049 L 28.543 39.507 Z M 27.459 40.967 L 26.275 39.071 L 26.31 39.051 L 27.459 40.967 Z M 27.454 40.967 L 26.31 42.884 L 23.179 41.008 L 26.27 39.076 L 27.454 40.967 Z M 28.272 41.775 L 30.188 40.621 L 30.188 40.626 L 28.272 41.775 Z M 28.543 43.571 L 30.71 44.113 L 28.543 43.571 Z M 27.459 45.026 L 28.613 46.943 L 28.608 46.943 L 27.459 45.026 Z M 16.296 51.724 L 17.445 53.641 L 16.296 51.724 Z M 9.513 52.938 L 9.066 55.126 L 9.513 52.938 Z M 4.124 49.201 L 6.041 48.052 L 4.124 49.201 Z M 4.842 39.738 L 3.121 38.318 L 3.121 38.313 L 4.842 39.738 Z M 5.143 39.352 L 3.317 38.068 L 5.143 39.352 Z M 5.399 38.991 L 7.345 40.079 L 7.295 40.175 L 7.235 40.26 L 5.399 38.991 Z M 9.493 31.616 L 11.444 32.699 L 7.496 30.617 L 9.493 31.616 Z M 11.364 30.517 L 11.364 32.749 L 11.364 30.517 Z M 12.403 30.788 L 13.481 28.831 L 13.491 28.836 L 12.403 30.788 Z M 13.366 31.721 L 11.449 32.87 L 13.366 31.721 Z M 13.411 34.33 L 11.454 33.246 L 11.459 33.241 L 13.411 34.33 Z M 12.282 32.368 L 14.199 31.219 L 14.976 32.514 L 14.068 33.713 L 12.282 32.368 Z M 11.79 31.887 L 12.869 29.935 L 12.879 29.94 L 11.79 31.887 Z M 10.596 32.228 L 12.548 33.306 L 12.548 33.311 L 10.596 32.228 Z M 6.533 39.497 L 6.011 41.67 L 3.041 40.962 L 4.616 38.344 L 6.533 39.497 Z M 6.538 39.497 L 7.054 37.325 L 9.357 37.877 L 8.675 40.145 L 6.538 39.497 Z M 6.176 40.074 L 8.008 41.354 L 8.003 41.359 L 6.176 40.074 Z M 5.815 40.541 L 7.541 41.961 L 7.536 41.966 L 5.815 40.541 Z M 5.203 48.553 L 3.291 49.702 L 5.203 48.553 Z M 9.764 51.704 L 9.317 53.892 L 9.764 51.704 Z M 15.644 50.645 L 14.495 48.729 L 15.644 50.645 Z M 26.812 43.948 L 25.663 42.031 L 26.812 43.948 Z M 27.318 43.265 L 25.151 42.723 L 27.318 43.265 Z M 27.193 42.422 L 25.281 43.571 L 25.276 43.571 L 27.193 42.422 Z M 25.668 42.041 L 26.822 43.953 L 26.817 43.958 L 25.668 42.041 Z M 20.159 45.347 L 19.01 43.431 L 20.159 45.347 Z M 19.296 45.132 L 21.213 43.983 L 19.296 45.132 Z M 19.512 44.264 L 18.363 42.352 L 19.512 44.264 Z M 25.021 40.962 L 26.17 42.874 L 25.021 40.962 Z M 26.812 39.889 L 27.961 41.8 L 26.812 39.889 Z M 27.318 39.206 L 29.486 39.743 L 29.486 39.748 L 27.318 39.206 Z M 27.193 38.364 L 25.276 39.513 L 27.193 38.364 Z M 25.668 37.982 L 26.817 39.899 L 25.668 37.982 Z M 18.368 42.362 L 17.219 40.446 L 18.368 42.362 Z M 17.505 42.146 L 19.422 40.993 L 17.505 42.146 Z M 17.721 41.279 L 16.572 39.367 L 17.721 41.279 Z M 26.681 35.905 L 27.83 37.822 L 26.681 35.905 Z M 27.188 35.223 L 25.021 34.681 L 27.188 35.223 Z M 27.058 34.38 L 28.974 33.231 L 28.974 33.236 L 27.058 34.38 Z M 26.375 33.873 L 26.917 31.706 L 26.917 31.711 L 26.375 33.873 Z M 25.537 33.999 L 24.388 32.087 L 25.537 33.999 Z M 23.877 34.997 L 25.026 36.909 L 24.494 37.23 L 23.877 37.23 L 23.877 34.997 Z M 23.877 34.997 L 22.728 33.081 L 23.26 32.764 L 23.877 32.764 L 23.877 34.997 Z M 16.577 39.372 L 15.428 37.461 L 16.577 39.372 Z M 15.714 39.156 L 17.63 38.007 L 17.63 38.012 L 15.714 39.156 Z M 15.93 38.293 L 14.781 36.382 L 14.781 36.377 L 15.93 38.293 Z M 23.229 33.913 L 24.378 35.83 L 23.229 33.913 Z M 23.736 33.231 L 21.569 32.689 L 23.736 33.231 Z M 23.566 32.328 L 21.729 33.597 L 23.566 32.328 Z M 22.025 32.047 L 23.174 33.964 L 22.025 32.047 Z M 10.862 38.745 L 12.011 40.656 L 12.011 40.661 L 10.862 38.745 Z M 10.1 38.655 L 8.549 40.26 L 10.1 38.655 Z M 9.989 37.897 L 8.033 36.813 L 8.038 36.813 L 9.989 37.897 Z M 12.307 33.718 L 10.356 32.634 L 10.356 32.629 L 12.307 33.718 Z M 12.282 32.368 L 10.371 33.517 L 9.593 32.228 L 10.501 31.024 L 12.282 32.368 Z M 11.078 34.541 L 20.224 29.052 L 22.522 32.885 L 13.376 38.369 L 11.078 34.541 Z M 20.224 29.052 C 22.281 27.818 25.026 28.294 26.44 30.336 L 22.768 32.88 C 22.763 32.875 22.753 32.855 22.703 32.845 C 22.653 32.835 22.587 32.845 22.522 32.88 L 20.224 29.052 Z M 26.44 30.336 C 26.962 31.089 27.208 31.937 27.243 32.754 L 22.783 32.96 C 22.778 32.89 22.763 32.875 22.768 32.88 L 26.44 30.336 Z M 23.982 30.878 C 24.619 30.542 25.342 30.346 26.104 30.346 L 26.104 34.816 C 26.109 34.816 26.094 34.811 26.049 34.837 L 23.982 30.878 Z M 26.104 30.346 C 26.481 30.346 26.857 30.396 27.223 30.487 L 26.144 34.822 C 26.124 34.816 26.109 34.816 26.104 34.816 L 26.104 30.346 Z M 27.223 30.487 C 28.412 30.783 29.426 31.535 30.058 32.584 L 26.225 34.882 C 26.21 34.862 26.2 34.847 26.19 34.842 C 26.18 34.837 26.164 34.827 26.139 34.822 L 27.223 30.487 Z M 30.058 32.584 C 30.685 33.637 30.871 34.882 30.575 36.071 L 26.24 34.987 C 26.245 34.962 26.245 34.947 26.245 34.932 C 26.245 34.922 26.24 34.907 26.225 34.882 L 30.058 32.584 Z M 30.575 36.071 C 30.294 37.195 29.611 38.128 28.698 38.745 L 26.18 35.057 C 26.21 35.037 26.225 35.022 26.23 35.012 C 26.235 35.007 26.24 34.997 26.24 34.987 L 30.575 36.071 Z M 28.578 34.977 C 29.195 35.343 29.767 35.865 30.188 36.567 L 26.355 38.86 C 26.36 38.865 26.36 38.865 26.355 38.86 C 26.35 38.855 26.335 38.84 26.305 38.825 L 28.578 34.977 Z M 30.188 36.567 C 30.815 37.616 31.006 38.86 30.705 40.049 L 26.375 38.971 C 26.38 38.946 26.38 38.926 26.375 38.915 C 26.375 38.905 26.37 38.885 26.355 38.865 L 30.188 36.567 Z M 30.705 40.049 C 30.409 41.243 29.656 42.252 28.608 42.884 L 26.31 39.051 C 26.33 39.041 26.345 39.026 26.35 39.016 C 26.36 39.006 26.365 38.991 26.375 38.966 L 30.705 40.049 Z M 28.643 42.864 L 28.638 42.864 L 26.27 39.076 L 26.275 39.076 L 28.643 42.864 Z M 28.603 39.056 C 29.21 39.417 29.777 39.934 30.188 40.621 L 26.36 42.924 C 26.36 42.929 26.36 42.924 26.355 42.919 C 26.35 42.914 26.335 42.899 26.31 42.884 L 28.603 39.056 Z M 30.188 40.626 C 30.82 41.675 31.006 42.919 30.71 44.113 L 26.375 43.03 C 26.38 43.004 26.38 42.989 26.38 42.974 C 26.375 42.964 26.37 42.944 26.36 42.924 L 30.188 40.626 Z M 30.71 44.113 C 30.409 45.302 29.661 46.311 28.613 46.943 L 26.31 43.115 C 26.335 43.1 26.345 43.085 26.355 43.075 C 26.36 43.065 26.37 43.05 26.375 43.024 L 30.71 44.113 Z M 28.608 46.943 L 17.445 53.641 L 15.147 49.813 L 26.31 43.11 L 28.608 46.943 Z M 17.445 53.641 C 14.901 55.166 11.926 55.713 9.066 55.126 L 9.959 50.751 C 11.675 51.102 13.521 50.786 15.147 49.813 L 17.445 53.641 Z M 9.066 55.126 C 6.171 54.539 3.708 52.853 2.208 50.349 L 6.041 48.052 C 6.864 49.426 8.233 50.4 9.959 50.751 L 9.066 55.126 Z M 2.208 50.349 C -0.12 46.466 0.236 41.81 3.121 38.318 L 6.568 41.163 C 4.882 43.2 4.686 45.799 6.041 48.052 L 2.208 50.349 Z M 3.121 38.313 C 3.216 38.203 3.271 38.128 3.317 38.068 L 6.974 40.636 C 6.829 40.842 6.678 41.023 6.563 41.163 L 3.121 38.313 Z M 3.317 38.068 C 3.412 37.932 3.527 37.767 3.562 37.716 L 7.235 40.26 C 7.19 40.32 7.074 40.491 6.969 40.636 L 3.317 38.068 Z M 3.452 37.897 C 3.567 37.691 4.586 35.855 5.579 34.059 C 6.076 33.166 6.568 32.283 6.934 31.626 C 7.115 31.294 7.265 31.024 7.37 30.833 C 7.426 30.738 7.466 30.662 7.496 30.612 C 7.511 30.587 7.521 30.567 7.526 30.552 C 7.531 30.547 7.536 30.542 7.536 30.537 C 7.536 30.537 7.536 30.537 7.536 30.532 C 7.541 30.532 7.541 30.532 7.541 30.532 C 7.541 30.532 7.541 30.532 7.541 30.532 C 7.541 30.532 10.536 29.644 11.489 32.614 L 7.496 30.617 C 8.449 33.592 11.444 32.704 11.444 32.704 C 11.444 32.704 11.444 32.704 11.444 32.704 C 11.444 32.704 11.444 32.704 11.444 32.704 C 11.444 32.704 11.444 32.704 11.439 32.704 C 11.439 32.709 11.439 32.714 11.434 32.719 C 11.424 32.734 11.414 32.754 11.399 32.78 C 11.374 32.83 11.329 32.905 11.279 33 C 11.173 33.191 11.023 33.467 10.837 33.793 C 10.471 34.45 9.984 35.333 9.488 36.226 C 8.494 38.012 7.466 39.864 7.345 40.079 L 3.452 37.897 Z M 7.536 30.537 C 8.339 29.092 9.834 28.284 11.364 28.284 L 11.364 32.749 C 11.379 32.749 11.394 32.744 11.404 32.739 C 11.424 32.729 11.439 32.714 11.444 32.699 L 7.536 30.537 Z M 11.364 28.284 C 12.081 28.284 12.814 28.46 13.481 28.831 L 11.319 32.739 C 11.329 32.744 11.349 32.749 11.364 32.749 L 11.364 28.284 Z M 13.491 28.836 C 14.229 29.248 14.846 29.85 15.282 30.572 L 11.449 32.87 C 11.414 32.815 11.369 32.77 11.309 32.734 L 13.491 28.836 Z M 15.277 30.572 C 16.165 32.052 16.201 33.903 15.358 35.419 L 11.459 33.241 C 11.52 33.136 11.52 32.985 11.449 32.87 L 15.277 30.572 Z M 15.363 35.414 L 14.184 37.536 L 10.275 35.368 L 11.454 33.246 L 15.363 35.414 Z M 10.371 33.517 C 10.446 33.648 10.561 33.763 10.697 33.833 L 12.879 29.94 C 13.426 30.241 13.878 30.682 14.199 31.219 L 10.371 33.517 Z M 10.707 33.843 C 11.354 34.199 12.182 33.974 12.548 33.306 L 8.64 31.149 C 9.473 29.639 11.369 29.102 12.869 29.935 L 10.707 33.843 Z M 12.548 33.311 C 9.804 38.248 8.835 40.004 8.444 40.651 L 4.616 38.344 C 4.952 37.787 5.86 36.151 8.64 31.144 L 12.548 33.311 Z M 7.049 37.325 L 7.054 37.325 L 6.021 41.675 L 6.011 41.67 L 7.049 37.325 Z M 8.675 40.145 C 8.675 40.155 8.635 40.3 8.559 40.461 C 8.489 40.626 8.414 40.757 8.359 40.837 C 8.279 40.967 8.148 41.148 8.008 41.354 L 4.345 38.795 C 4.43 38.675 4.491 38.589 4.531 38.529 C 4.551 38.499 4.566 38.479 4.576 38.464 C 4.586 38.454 4.586 38.449 4.581 38.459 C 4.576 38.469 4.521 38.549 4.471 38.67 C 4.44 38.73 4.425 38.785 4.41 38.825 C 4.405 38.84 4.4 38.855 4.4 38.86 C 4.4 38.86 4.395 38.865 4.4 38.855 L 8.675 40.145 Z M 8.003 41.359 C 7.842 41.59 7.676 41.795 7.541 41.961 L 4.089 39.121 C 4.205 38.986 4.285 38.885 4.35 38.79 L 8.003 41.359 Z M 7.536 41.966 C 6.171 43.617 6.026 45.583 7.12 47.404 L 3.291 49.702 C 1.219 46.25 1.53 42.227 4.094 39.121 L 7.536 41.966 Z M 7.12 47.404 C 7.757 48.468 8.83 49.236 10.21 49.517 L 9.317 53.892 C 6.778 53.375 4.611 51.9 3.291 49.702 L 7.12 47.404 Z M 10.21 49.517 C 11.615 49.803 13.14 49.547 14.495 48.729 L 16.793 52.562 C 14.525 53.922 11.871 54.413 9.317 53.892 L 10.21 49.517 Z M 14.495 48.729 L 25.663 42.031 L 27.961 45.859 L 16.793 52.562 L 14.495 48.729 Z M 25.663 42.031 C 25.412 42.182 25.226 42.432 25.151 42.723 L 29.486 43.802 C 29.27 44.67 28.723 45.408 27.961 45.864 L 25.663 42.031 Z M 25.151 42.723 C 25.081 43.009 25.126 43.32 25.281 43.571 L 29.11 41.274 C 29.566 42.036 29.702 42.939 29.486 43.807 L 25.151 42.723 Z M 25.276 43.571 C 25.598 44.098 26.285 44.279 26.822 43.953 L 24.519 40.13 C 26.104 39.171 28.161 39.693 29.11 41.274 L 25.276 43.571 Z M 26.817 43.958 L 21.308 47.259 L 19.01 43.431 L 24.519 40.125 L 26.817 43.958 Z M 21.313 47.259 C 19.958 48.072 18.197 47.64 17.38 46.276 L 21.213 43.983 C 20.756 43.22 19.768 42.979 19.01 43.431 L 21.313 47.259 Z M 17.38 46.281 C 16.567 44.926 17.008 43.165 18.363 42.352 L 20.661 46.18 C 21.418 45.724 21.669 44.74 21.213 43.983 L 17.38 46.281 Z M 18.363 42.352 L 23.872 39.046 L 26.17 42.874 L 20.661 46.18 L 18.363 42.352 Z M 23.872 39.046 L 25.663 37.972 L 27.961 41.8 L 26.17 42.874 L 23.872 39.046 Z M 25.663 37.972 C 25.412 38.123 25.226 38.369 25.151 38.66 L 29.486 39.748 C 29.27 40.611 28.718 41.344 27.961 41.8 L 25.663 37.972 Z M 25.151 38.665 C 25.081 38.951 25.126 39.262 25.276 39.513 L 29.105 37.21 C 29.566 37.972 29.702 38.88 29.486 39.743 L 25.151 38.665 Z M 25.276 39.513 C 25.598 40.044 26.285 40.215 26.817 39.899 L 24.519 36.066 C 26.104 35.118 28.156 35.634 29.11 37.215 L 25.276 39.513 Z M 26.817 39.899 L 19.517 44.274 L 17.219 40.446 L 24.519 36.066 L 26.817 39.899 Z M 19.517 44.274 C 18.162 45.092 16.401 44.65 15.588 43.295 L 19.422 40.993 C 18.965 40.235 17.982 39.989 17.219 40.446 L 19.517 44.274 Z M 15.588 43.295 C 14.776 41.936 15.217 40.18 16.572 39.367 L 18.87 43.195 C 19.627 42.739 19.878 41.755 19.422 40.993 L 15.588 43.295 Z M 16.572 39.367 L 25.532 33.989 L 27.83 37.822 L 18.87 43.195 L 16.572 39.367 Z M 25.527 33.994 C 25.281 34.139 25.091 34.39 25.021 34.681 L 29.35 35.765 C 29.135 36.628 28.588 37.365 27.83 37.822 L 25.527 33.994 Z M 25.021 34.681 C 24.945 34.972 24.996 35.278 25.146 35.529 L 28.974 33.236 C 29.431 33.994 29.566 34.902 29.35 35.765 L 25.021 34.681 Z M 25.146 35.529 C 25.297 35.785 25.547 35.97 25.838 36.041 L 26.917 31.711 C 27.78 31.927 28.518 32.474 28.974 33.231 L 25.146 35.529 Z M 25.838 36.046 C 26.119 36.116 26.43 36.071 26.686 35.915 L 24.388 32.087 C 25.151 31.631 26.054 31.495 26.917 31.706 L 25.838 36.046 Z M 26.686 35.915 L 25.026 36.909 L 22.728 33.081 L 24.388 32.087 L 26.686 35.915 Z M 23.877 37.23 C 23.972 37.23 24.067 37.225 24.173 37.21 C 24.273 37.195 24.378 37.175 24.479 37.144 C 24.584 37.119 24.679 37.084 24.775 37.039 C 24.865 36.999 24.95 36.954 25.026 36.909 C 25.176 36.823 25.287 36.733 25.357 36.673 C 25.387 36.643 25.417 36.613 25.432 36.598 C 25.447 36.588 25.457 36.572 25.457 36.577 C 25.457 36.577 25.457 36.577 25.457 36.577 C 25.457 36.577 25.457 36.577 25.457 36.577 C 25.457 36.577 25.457 36.577 25.457 36.577 C 25.457 36.577 25.457 36.577 25.457 36.577 C 25.452 36.577 25.452 36.577 25.452 36.583 C 25.447 36.588 25.442 36.593 25.432 36.598 C 25.417 36.618 25.387 36.643 25.357 36.673 C 25.287 36.733 25.176 36.823 25.026 36.909 C 24.95 36.959 24.865 36.999 24.775 37.044 C 24.679 37.084 24.584 37.119 24.479 37.144 C 24.378 37.175 24.273 37.195 24.173 37.21 C 24.067 37.225 23.972 37.23 23.877 37.23 L 23.877 32.764 C 23.781 32.764 23.686 32.77 23.581 32.785 C 23.48 32.795 23.38 32.815 23.275 32.845 C 23.174 32.875 23.074 32.91 22.979 32.95 C 22.888 32.99 22.803 33.035 22.728 33.081 C 22.577 33.171 22.467 33.261 22.402 33.321 C 22.367 33.351 22.336 33.377 22.321 33.392 C 22.306 33.407 22.296 33.417 22.296 33.417 C 22.296 33.417 22.296 33.417 22.296 33.417 C 22.296 33.417 22.296 33.417 22.296 33.417 C 22.296 33.417 22.296 33.417 22.296 33.417 C 22.296 33.417 22.301 33.417 22.301 33.417 C 22.301 33.412 22.301 33.412 22.306 33.412 C 22.306 33.407 22.316 33.402 22.321 33.392 C 22.341 33.377 22.367 33.351 22.402 33.321 C 22.467 33.261 22.577 33.171 22.728 33.081 C 22.803 33.035 22.888 32.99 22.979 32.95 C 23.074 32.91 23.174 32.875 23.275 32.845 C 23.38 32.815 23.48 32.795 23.586 32.78 C 23.686 32.77 23.786 32.764 23.877 32.764 L 23.877 37.23 Z M 23.877 37.23 L 23.877 32.764 L 23.877 37.23 Z M 25.026 36.914 L 17.726 41.289 L 15.428 37.461 L 22.728 33.081 L 25.026 36.914 Z M 17.731 41.289 C 16.371 42.106 14.61 41.665 13.797 40.305 L 17.63 38.012 C 17.174 37.25 16.185 37.004 15.428 37.461 L 17.731 41.289 Z M 13.797 40.31 C 12.985 38.951 13.426 37.195 14.781 36.382 L 17.079 40.21 C 17.836 39.753 18.087 38.77 17.63 38.007 L 13.797 40.31 Z M 14.781 36.377 L 22.081 32.002 L 24.378 35.83 L 17.079 40.21 L 14.781 36.377 Z M 22.081 32.002 C 21.83 32.152 21.639 32.398 21.569 32.689 L 25.904 33.773 C 25.683 34.641 25.136 35.373 24.378 35.83 L 22.081 32.002 Z M 21.569 32.689 C 21.489 33.01 21.559 33.346 21.729 33.597 L 25.402 31.054 C 25.949 31.846 26.139 32.825 25.904 33.778 L 21.569 32.689 Z M 21.729 33.597 C 21.945 33.908 22.246 34.049 22.477 34.089 C 22.708 34.134 22.954 34.094 23.174 33.964 L 20.871 30.136 C 22.286 29.283 24.333 29.503 25.402 31.054 L 21.729 33.597 Z M 23.174 33.964 L 12.011 40.656 L 9.713 36.828 L 20.871 30.131 L 23.174 33.964 Z M 12.011 40.661 C 10.902 41.324 9.483 41.163 8.549 40.26 L 11.655 37.049 C 11.128 36.542 10.336 36.457 9.718 36.823 L 12.011 40.661 Z M 8.549 40.26 C 7.616 39.362 7.406 37.947 8.033 36.813 L 11.941 38.981 C 12.292 38.349 12.177 37.556 11.655 37.049 L 8.549 40.26 Z M 8.038 36.813 L 10.356 32.634 L 14.259 34.801 L 11.941 38.981 L 8.038 36.813 Z M 10.356 32.629 C 10.2 32.915 10.21 33.251 10.371 33.517 L 14.199 31.219 C 14.856 32.313 14.886 33.683 14.259 34.801 L 10.356 32.629 Z M 10.501 31.024 L 14.068 33.713 L 10.501 31.024 Z" fill="#4CAF4F" mask="url(#mask-2)" style=""></path>
  <path d="M 33.931 32.724 C 33.755 32.724 33.58 32.749 33.404 32.79 L 33.931 32.724 Z M 33.931 32.724 C 33.931 32.679 33.936 32.629 33.941 32.579 L 33.931 32.724 Z M 31.904 37.787 C 31.904 37.787 31.904 37.787 31.904 37.787 C 31.904 37.787 31.904 37.787 31.904 37.787 Z M 31.904 37.787 L 31.779 37.716 L 31.904 37.787 M 31.904 37.787 C 31.909 37.782 31.909 37.777 31.914 37.777 L 31.904 37.787 Z M 40.468 44.389 Z" fill="#4CAF4F" stroke="#4CAF4F" stroke-width="0.445155" style=""></path>
</svg>