<svg width="39" height="34" viewBox="0 0 39 34" fill="none" xmlns="http://www.w3.org/2000/svg">
<g clip-path="url(#clip0_211_2080)">
<path d="M38.8874 13.9505C38.8914 13.9215 38.8914 13.8921 38.8874 13.8631C38.8912 13.8395 38.8912 13.8153 38.8874 13.7916L38.6038 11.7503C38.5629 11.5061 38.4535 11.2778 38.2878 11.0911L38.2392 11.0354L38.1501 10.9481L33.2403 6.80188L33.3781 6.93692C33.2654 6.80475 33.1239 6.69903 32.9641 6.62755C32.8043 6.55607 32.6301 6.52065 32.4545 6.52389H30.9637C30.7213 6.51918 30.4844 6.59474 30.2912 6.73835C30.0884 6.59561 29.8441 6.52043 29.5944 6.52389H28.1037C27.9081 6.52078 27.7153 6.56835 27.5446 6.6618C27.3738 6.75525 27.2313 6.89126 27.1315 7.05606C26.9775 7.29144 26.9196 7.57503 26.9694 7.85035L27.1558 9.1371C27.0323 9.06849 26.8926 9.03289 26.7506 9.03385H19.5318C19.2728 9.03544 19.0198 9.10987 18.8026 9.2483C18.5926 9.37715 18.4241 9.56165 18.3165 9.78047L17.7575 9.31184C17.5374 9.11226 17.247 9.00408 16.9473 9.01002H5.62073C5.36081 9.01466 5.10666 9.08585 4.88347 9.21653C4.57813 9.39174 4.35435 9.67663 4.2596 10.0108L0.662334 21.806C0.59512 22.0004 0.588508 22.21 0.643345 22.4081C0.698182 22.6061 0.811983 22.7837 0.970212 22.918C1.01144 22.9523 1.05473 22.9841 1.09985 23.0133C1.09985 23.0133 1.02692 22.9657 0.986407 22.926L5.89622 27.0801C6.10391 27.2676 6.37546 27.3724 6.65775 27.374H18.0735C18.3342 27.3673 18.5885 27.2934 18.8107 27.1595C18.9364 27.0922 19.0489 27.0034 19.1429 26.8974L19.1834 26.8418L19.2482 26.7624L19.2968 26.675L19.8316 27.1278C20.0363 27.3078 20.3019 27.4068 20.577 27.4058H32.0169C32.2773 27.3973 32.5312 27.3234 32.7542 27.1913C32.8771 27.1198 32.9889 27.0316 33.0864 26.9292L33.1269 26.8736L33.1917 26.7942C33.2261 26.7439 33.256 26.6908 33.2808 26.6353C33.3073 26.5871 33.329 26.5366 33.3456 26.4844L36.6269 15.7138V15.6185C36.631 15.5815 36.631 15.5443 36.6269 15.5073V15.4358C36.6308 15.4121 36.6308 15.388 36.6269 15.3643C36.6306 15.3141 36.6306 15.2637 36.6269 15.2134H37.6802C37.7718 15.2216 37.864 15.2216 37.9556 15.2134H38.0286C38.0879 15.1961 38.145 15.172 38.1987 15.1419H38.2798L38.4256 15.0307L38.4904 14.9831L38.6038 14.8401V14.7925L38.6848 14.6574C38.6803 14.6312 38.6803 14.6043 38.6848 14.578C38.6805 14.5651 38.6805 14.5512 38.6848 14.5383C38.7021 14.4917 38.7156 14.4439 38.7253 14.3953C38.7216 14.3796 38.7216 14.3633 38.7253 14.3476C38.7214 14.324 38.7214 14.2998 38.7253 14.2762C38.7253 14.2762 38.8874 13.9664 38.8874 13.9505Z" fill="black"/>
<path d="M17.2795 9.91554C17.3225 9.95367 17.3525 10.0038 17.3656 10.0592C17.3786 10.1146 17.374 10.1726 17.3524 10.2253L13.7633 22.0126C13.7181 22.1413 13.6256 22.2488 13.504 22.3144C13.405 22.3793 13.2905 22.4176 13.1718 22.4256H1.76424C1.66682 22.421 1.57452 22.3814 1.50497 22.3144C1.4636 22.2769 1.43456 22.2281 1.42157 22.1744C1.40858 22.1206 1.41224 22.0643 1.43206 22.0126L5.02933 10.2253C5.07077 10.095 5.16033 9.98453 5.28048 9.91554C5.38107 9.85531 5.49506 9.81987 5.61267 9.81228H17.0202C17.1169 9.81319 17.2095 9.85011 17.2795 9.91554ZM11.3245 19.6376L13.4716 12.6002H7.45993L5.32099 19.6376H11.3245ZM28.1685 10.0347C28.2074 10.079 28.2561 10.1142 28.3108 10.1376C28.3655 10.1609 28.4248 10.1719 28.4845 10.1697H29.9671C30.0236 10.1702 30.0792 10.1567 30.1289 10.1303C30.1785 10.1039 30.2204 10.0655 30.2507 10.0188C30.277 9.98231 30.2956 9.94101 30.3054 9.89735C30.3151 9.85369 30.3158 9.80856 30.3074 9.76462L30.0157 7.6677C29.988 7.57065 29.9381 7.48103 29.87 7.40558C29.831 7.36124 29.7824 7.32607 29.7277 7.30269C29.6729 7.27932 29.6136 7.26833 29.5539 7.27055H28.0713C28.0148 7.27001 27.9592 7.28359 27.9096 7.30999C27.8599 7.3364 27.818 7.37476 27.7877 7.42147C27.731 7.53267 27.7067 7.60415 27.731 7.6677L28.0308 9.76462C28.0462 9.86673 28.0944 9.96134 28.1685 10.0347ZM32.8758 7.65181C32.848 7.55476 32.7981 7.46514 32.7299 7.38969C32.6926 7.34551 32.6454 7.31036 32.592 7.28694C32.5387 7.26353 32.4805 7.25248 32.422 7.25467H30.9313C30.8758 7.25312 30.8208 7.26632 30.7723 7.29289C30.7238 7.31946 30.6836 7.3584 30.6558 7.40558C30.6019 7.47605 30.5786 7.56456 30.591 7.65181L30.8907 9.74873C30.9096 9.84976 30.9573 9.94344 31.0285 10.0188C31.0681 10.0623 31.1169 10.0968 31.1714 10.1201C31.226 10.1435 31.285 10.1549 31.3445 10.1538H32.8352C32.8906 10.1545 32.9452 10.141 32.9935 10.1145C33.0419 10.088 33.0823 10.0495 33.1107 10.0029C33.1389 9.96737 33.1586 9.92609 33.1684 9.88211C33.1783 9.83814 33.1779 9.79257 33.1674 9.74873L32.8758 7.65181ZM26.8641 10.829L26.7182 9.79639H19.5318C19.419 9.80249 19.3098 9.83815 19.2158 9.89965C19.1562 9.93155 19.1042 9.97577 19.0637 10.0292C19.0231 10.0827 18.9949 10.1442 18.9809 10.2094L18.3813 12.1792C18.3574 12.2285 18.3492 12.2837 18.3579 12.3376C18.3666 12.3915 18.3917 12.4415 18.4299 12.4811C18.4983 12.5441 18.5874 12.5808 18.6811 12.5844H27.4151L25.268 19.6218H16.5584C16.4461 19.6243 16.3367 19.6573 16.2425 19.7171C16.1279 19.7884 16.0442 19.8987 16.0075 20.0268L15.3998 21.9967C15.38 22.0472 15.3748 22.1022 15.3848 22.1554C15.3948 22.2087 15.4196 22.2582 15.4565 22.2985C15.5227 22.3657 15.6126 22.4055 15.7077 22.4097H27.1477C27.266 22.3997 27.38 22.3616 27.4798 22.2985C27.5995 22.2326 27.6892 22.1248 27.731 21.9967L31.0204 11.2261H27.3178C27.259 11.2272 27.2007 11.2166 27.1464 11.1947C27.092 11.1728 27.0428 11.1403 27.0019 11.099C26.9349 11.027 26.8875 10.9396 26.8641 10.8449V10.829Z" fill="white"/>
</g>
<defs>
<clipPath id="clip0_211_2080">
<rect width="38.2838" height="20.8821" fill="white" transform="translate(0.606567 6.52368)"/>
</clipPath>
</defs>
</svg>
