<svg width="34" height="34" viewBox="0 0 34 34" fill="none" xmlns="http://www.w3.org/2000/svg">
<g clip-path="url(#clip0_211_2046)">
<path fill-rule="evenodd" clip-rule="evenodd" d="M9.97907 3.14996C13.8233 3.14996 16.9398 6.26637 16.9398 10.1107V3.14996H23.9005C27.7447 3.14996 30.8612 6.26637 30.8612 10.1107C30.8612 13.9549 27.7447 17.0714 23.9005 17.0714C27.7447 17.0714 30.8612 20.1878 30.8612 24.032C30.8612 25.9409 30.0928 27.6703 28.8485 28.9278L28.8224 28.954L28.7993 28.977C27.5415 30.2231 25.8109 30.9927 23.9005 30.9927C22.003 30.9927 20.2829 30.2335 19.0273 29.0023C19.011 28.9863 18.9947 28.9702 18.9785 28.954C18.9632 28.9388 18.9481 28.9235 18.933 28.9081C17.7001 27.6522 16.9398 25.9309 16.9398 24.032C16.9398 27.8763 13.8233 30.9927 9.97907 30.9927C6.13478 30.9927 3.01837 27.8763 3.01837 24.032V17.0714H9.97907C6.13478 17.0714 3.01837 13.9549 3.01837 10.1107C3.01837 6.26637 6.13478 3.14996 9.97907 3.14996ZM15.5476 10.1107C15.5476 13.1861 13.0545 15.6792 9.97907 15.6792V4.5421C13.0545 4.5421 15.5476 7.03523 15.5476 10.1107ZM29.469 24.032C29.469 20.9566 26.9759 18.4635 23.9005 18.4635C20.825 18.4635 18.3319 20.9566 18.3319 24.032H29.469ZM4.41051 18.4635V24.032C4.41051 27.1075 6.90364 29.6006 9.97907 29.6006C13.0545 29.6006 15.5476 27.1075 15.5476 24.032V18.4635H4.41051ZM18.3319 15.6792V4.5421H23.9005C26.9759 4.5421 29.469 7.03523 29.469 10.1107C29.469 13.1861 26.9759 15.6792 23.9005 15.6792H18.3319Z" fill="#263238"/>
</g>
<defs>
<clipPath id="clip0_211_2046">
<rect width="27.8428" height="27.8428" fill="white" transform="translate(3.01837 3.14996)"/>
</clipPath>
</defs>
</svg>
