<svg width="39" height="34" viewBox="0 0 39 34" fill="none" xmlns="http://www.w3.org/2000/svg">
<g clip-path="url(#clip0_211_2052)">
<path d="M38.5802 13.9505C38.5842 13.9215 38.5842 13.8921 38.5802 13.8631C38.584 13.8395 38.584 13.8153 38.5802 13.7916L38.2966 11.7503C38.2557 11.5061 38.1463 11.2778 37.9807 11.0911L37.932 11.0354L37.8429 10.9481L32.9331 6.80188L33.0709 6.93692C32.9582 6.80475 32.8167 6.69903 32.6569 6.62755C32.4971 6.55607 32.3229 6.52065 32.1473 6.52389H30.6565C30.4141 6.51918 30.1772 6.59474 29.984 6.73835C29.7812 6.59561 29.5369 6.52043 29.2872 6.52389H27.7965C27.601 6.52078 27.4081 6.56835 27.2374 6.6618C27.0666 6.75525 26.9241 6.89126 26.8243 7.05606C26.6703 7.29144 26.6124 7.57503 26.6622 7.85035L26.8486 9.1371C26.7251 9.06849 26.5854 9.03289 26.4435 9.03385H19.2246C18.9656 9.03544 18.7126 9.10987 18.4954 9.2483C18.2854 9.37715 18.1169 9.56165 18.0093 9.78047L17.4503 9.31184C17.2302 9.11226 16.9398 9.00408 16.6401 9.01002H5.31354C5.05362 9.01466 4.79947 9.08585 4.57628 9.21653C4.27094 9.39174 4.04716 9.67663 3.95241 10.0108L0.355144 21.806C0.28793 22.0004 0.281318 22.21 0.336155 22.4081C0.390992 22.6061 0.504794 22.7837 0.663022 22.918C0.704252 22.9523 0.747543 22.9841 0.792657 23.0133C0.792657 23.0133 0.719727 22.9657 0.679217 22.926L5.58903 27.0801C5.79672 27.2676 6.06827 27.3724 6.35056 27.374H17.7663C18.027 27.3673 18.2813 27.2934 18.5035 27.1595C18.6292 27.0922 18.7417 27.0034 18.8357 26.8974L18.8762 26.8418L18.941 26.7624L18.9896 26.675L19.5244 27.1278C19.7291 27.3078 19.9948 27.4068 20.2698 27.4058H31.7097C31.9701 27.3973 32.224 27.3234 32.447 27.1913C32.5699 27.1198 32.6817 27.0316 32.7792 26.9292L32.8197 26.8736L32.8845 26.7942C32.9189 26.7439 32.9488 26.6908 32.9736 26.6353C33.0001 26.5871 33.0218 26.5366 33.0384 26.4844L36.3197 15.7138V15.6185C36.3238 15.5815 36.3238 15.5443 36.3197 15.5073V15.4358C36.3237 15.4121 36.3237 15.388 36.3197 15.3643C36.3234 15.3141 36.3234 15.2637 36.3197 15.2134H37.373C37.4646 15.2216 37.5568 15.2216 37.6484 15.2134H37.7214C37.7807 15.1961 37.8378 15.172 37.8915 15.1419H37.9726L38.1184 15.0307L38.1832 14.9831L38.2966 14.8401V14.7925L38.3776 14.6574C38.3731 14.6312 38.3731 14.6043 38.3776 14.578C38.3733 14.5651 38.3733 14.5512 38.3776 14.5383C38.3949 14.4917 38.4084 14.4439 38.4182 14.3953C38.4144 14.3796 38.4144 14.3633 38.4182 14.3476C38.4142 14.324 38.4142 14.2998 38.4182 14.2762C38.4182 14.2762 38.5802 13.9664 38.5802 13.9505Z" fill="black"/>
<path d="M16.9723 9.91554C17.0153 9.95367 17.0453 10.0038 17.0584 10.0592C17.0714 10.1146 17.0668 10.1726 17.0452 10.2253L13.4561 22.0126C13.4109 22.1413 13.3184 22.2488 13.1968 22.3144C13.0978 22.3793 12.9833 22.4176 12.8646 22.4256H1.45705C1.35963 22.421 1.26733 22.3814 1.19778 22.3144C1.15641 22.2769 1.12737 22.2281 1.11438 22.1744C1.10139 22.1206 1.10505 22.0643 1.12487 22.0126L4.72214 10.2253C4.76358 10.095 4.85314 9.98453 4.97329 9.91554C5.07388 9.85531 5.18787 9.81987 5.30548 9.81228H16.713C16.8097 9.81319 16.9024 9.85011 16.9723 9.91554ZM11.0173 19.6376L13.1644 12.6002H7.15274L5.0138 19.6376H11.0173ZM27.8613 10.0347C27.9002 10.079 27.9489 10.1142 28.0036 10.1376C28.0583 10.1609 28.1177 10.1719 28.1773 10.1697H29.66C29.7164 10.1702 29.772 10.1567 29.8217 10.1303C29.8713 10.1039 29.9132 10.0655 29.9435 10.0188C29.9698 9.98231 29.9885 9.94101 29.9982 9.89735C30.0079 9.85369 30.0086 9.80856 30.0002 9.76462L29.7086 7.6677C29.6808 7.57065 29.6309 7.48103 29.5628 7.40558C29.5238 7.36124 29.4752 7.32607 29.4205 7.30269C29.3658 7.27932 29.3064 7.26833 29.2468 7.27055H27.7641C27.7076 7.27001 27.652 7.28359 27.6024 7.30999C27.5528 7.3364 27.5108 7.37476 27.4805 7.42147C27.4238 7.53267 27.3995 7.60415 27.4238 7.6677L27.7236 9.76462C27.739 9.86673 27.7872 9.96134 27.8613 10.0347ZM32.5686 7.65181C32.5408 7.55476 32.4909 7.46514 32.4227 7.38969C32.3854 7.34551 32.3382 7.31036 32.2848 7.28694C32.2315 7.26353 32.1733 7.25248 32.1149 7.25467H30.6241C30.5686 7.25312 30.5136 7.26632 30.4651 7.29289C30.4166 7.31946 30.3764 7.3584 30.3486 7.40558C30.2947 7.47605 30.2714 7.56456 30.2838 7.65181L30.5836 9.74873C30.6024 9.84976 30.6501 9.94344 30.7213 10.0188C30.7609 10.0623 30.8097 10.0968 30.8643 10.1201C30.9188 10.1435 30.9778 10.1549 31.0373 10.1538H32.5281C32.5835 10.1545 32.638 10.141 32.6863 10.1145C32.7347 10.088 32.7751 10.0495 32.8035 10.0029C32.8317 9.96737 32.8514 9.92609 32.8612 9.88211C32.8711 9.83814 32.8707 9.79257 32.8602 9.74873L32.5686 7.65181ZM26.5569 10.829L26.411 9.79639H19.2246C19.1118 9.80249 19.0026 9.83815 18.9086 9.89965C18.849 9.93155 18.797 9.97577 18.7565 10.0292C18.7159 10.0827 18.6877 10.1442 18.6737 10.2094L18.0742 12.1792C18.0502 12.2285 18.042 12.2837 18.0507 12.3376C18.0594 12.3915 18.0845 12.4415 18.1228 12.4811C18.1911 12.5441 18.2803 12.5808 18.3739 12.5844H27.1079L24.9608 19.6218H16.2512C16.1389 19.6243 16.0295 19.6573 15.9353 19.7171C15.8207 19.7884 15.737 19.8987 15.7003 20.0268L15.0926 21.9967C15.0728 22.0472 15.0676 22.1022 15.0776 22.1554C15.0876 22.2087 15.1124 22.2582 15.1493 22.2985C15.2155 22.3657 15.3054 22.4055 15.4005 22.4097H26.8405C26.9588 22.3997 27.0728 22.3616 27.1726 22.2985C27.2923 22.2326 27.382 22.1248 27.4238 21.9967L30.7132 11.2261H27.0106C26.9519 11.2272 26.8935 11.2166 26.8392 11.1947C26.7848 11.1728 26.7357 11.1403 26.6947 11.099C26.6277 11.027 26.5803 10.9396 26.5569 10.8449V10.829Z" fill="white"/>
</g>
<defs>
<clipPath id="clip0_211_2052">
<rect width="38.2838" height="20.8821" fill="white" transform="translate(0.299377 6.52368)"/>
</clipPath>
</defs>
</svg>
