<svg width="12" height="13" viewBox="0 0 12 13" fill="none" xmlns="http://www.w3.org/2000/svg">
<path d="M11.0917 12.4071V11.0717C11.0917 10.3633 10.8103 9.68393 10.3094 9.18303C9.80849 8.68214 9.12913 8.40074 8.42076 8.40074H7.75302C7.57593 8.40074 7.40609 8.33039 7.28086 8.20516C7.15564 8.07994 7.08529 7.9101 7.08529 7.733V4.39434C7.08529 4.04015 6.94459 3.70047 6.69414 3.45002C6.44369 3.19957 6.10401 3.05887 5.74982 3.05887C5.39564 3.05887 5.05595 3.19957 4.80551 3.45002C4.55506 3.70047 4.41436 4.04015 4.41436 4.39434V10.4039L2.8118 8.26719C2.6874 8.10133 2.5261 7.96671 2.34066 7.87399C2.15523 7.78127 1.95075 7.733 1.74343 7.733H1.45363C0.87604 7.733 0.407959 8.20108 0.407959 8.77867C0.407959 8.96831 0.459374 9.15461 0.556863 9.31687L2.41116 12.4071M5.74982 1.05567V0.387939V1.05567ZM9.75622 5.06207H10.424H9.75622ZM1.07569 5.06207H1.74343H1.07569ZM2.64019 1.95244L2.1681 1.48035L2.64019 1.95244ZM8.85946 1.95244L9.33154 1.48035L8.85946 1.95244Z" fill="#4CAF4F"/>
<path d="M11.0917 12.4071V11.0717C11.0917 10.3633 10.8103 9.68393 10.3094 9.18303C9.80849 8.68214 9.12913 8.40074 8.42076 8.40074H7.75302C7.57593 8.40074 7.40609 8.33039 7.28086 8.20516C7.15564 8.07994 7.08529 7.9101 7.08529 7.733V4.39434C7.08529 4.04015 6.94459 3.70047 6.69414 3.45002C6.44369 3.19957 6.10401 3.05887 5.74982 3.05887V3.05887C5.39564 3.05887 5.05596 3.19957 4.80551 3.45002C4.55506 3.70047 4.41436 4.04015 4.41436 4.39434V10.4039L2.8118 8.26719C2.6874 8.10133 2.5261 7.96671 2.34066 7.87399C2.15523 7.78127 1.95075 7.733 1.74343 7.733H1.45363C0.87604 7.733 0.407959 8.20108 0.407959 8.77867C0.407959 8.96831 0.459374 9.15461 0.556863 9.31687L2.41116 12.4071M5.74982 1.05567V0.387939M9.75622 5.06207H10.424M1.07569 5.06207H1.74343M2.64019 1.95244L2.1681 1.48035M8.85946 1.95244L9.33154 1.48035" stroke="#4CAF4F" stroke-width="0.667733" stroke-linecap="round" stroke-linejoin="round"/>
</svg>
